<?xml version="1.0" encoding="UTF-8"?> <svg xmlns:xlink="http://www.w3.org/1999/xlink" xmlns="http://www.w3.org/2000/svg" version="1.1" viewBox="0.0 0.0 960.1942257217847 436.65616797900265" fill="none" stroke="none" stroke-linecap="square" stroke-miterlimit="10"><clipPath id="p.0"><path d="m0 0l960.1942 0l0 436.65616l-960.1942 0l0 -436.65616z" clip-rule="nonzero"></path></clipPath><g clip-path="url(#p.0)"><path fill="#000000" fill-opacity="0.0" d="m0 0l960.1942 0l0 436.65616l-960.1942 0z" fill-rule="evenodd"></path><path fill="#000000" fill-opacity="0.0" d="m262.41208 316.22308c108.787384 0 217.5748 -58.04724 217.5748 -116.09447" fill-rule="evenodd"></path><path stroke="#000000" stroke-width="1.0" stroke-linejoin="round" stroke-linecap="butt" d="m262.41208 316.22308c108.787384 0 217.5748 -58.04724 217.5748 -116.09447" fill-rule="evenodd"></path><path fill="#000000" fill-opacity="0.0" d="m480.0 200.13124c0 58.047226 106.66144 116.09447 213.32281 116.09447" fill-rule="evenodd"></path><path stroke="#000000" stroke-width="1.0" stroke-linejoin="round" stroke-linecap="butt" d="m480.0 200.13124c0 58.047226 106.66144 116.09447 213.32281 116.09447" fill-rule="evenodd"></path><path fill="#000000" fill-opacity="0.0" d="m693.3097 316.22308l-430.8976 0" fill-rule="evenodd"></path><path stroke="#000000" stroke-width="1.0" stroke-linejoin="round" stroke-linecap="butt" d="m693.3097 316.22308l-430.8976 0" fill-rule="evenodd"></path><path fill="#000000" fill-opacity="0.0" d="m356.26773 29.895014l247.46457 0l0 170.23622l-247.46457 0z" fill-rule="evenodd"></path><path stroke="#000000" stroke-width="1.0" stroke-linejoin="round" stroke-linecap="butt" d="m356.26773 29.895014l247.46457 0l0 170.23622l-247.46457 0z" fill-rule="evenodd"></path><path fill="#000000" d="m375.39908 77.27812l3.484375 0q2.46875 0 3.5625 0.75q1.109375 0.734375 1.109375 2.3125q0 1.109375 -0.625 1.828125q-0.609375 0.703125 -1.78125 0.921875l0 0.078125q2.8125 0.484375 2.8125 2.96875q0 1.65625 -1.125 2.59375q-1.109375 0.921875 -3.125 0.921875l-4.3125 0l0 -12.375zm1.4375 5.296875l2.375 0q1.515625 0 2.1875 -0.46875q0.671875 -0.484375 0.671875 -1.609375q0 -1.046875 -0.75 -1.5q-0.75 -0.46875 -2.375 -0.46875l-2.109375 0l0 4.046875zm0 1.21875l0 4.625l2.578125 0q1.5 0 2.25 -0.578125q0.765625 -0.578125 0.765625 -1.8125q0 -1.140625 -0.78125 -1.6875q-0.765625 -0.546875 -2.359375 -0.546875l-2.453125 0zm13.805878 -3.578125q0.625 0 1.109375 0.09375l-0.1875 1.3125q-0.578125 -0.140625 -1.015625 -0.140625q-1.125 0 -1.9375 0.921875q-0.796875 0.90625 -0.796875 2.28125l0 4.96875l-1.40625 0l0 -9.265625l1.15625 0l0.171875 1.703125l0.0625 0q0.515625 -0.90625 1.234375 -1.390625q0.734375 -0.484375 1.609375 -0.484375zm10.854645 4.796875q0 2.265625 -1.15625 3.546875q-1.140625 1.265625 -3.15625 1.265625q-1.234375 0 -2.203125 -0.578125q-0.96875 -0.59375 -1.5 -1.6875q-0.515625 -1.09375 -0.515625 -2.546875q0 -2.265625 1.125 -3.53125q1.140625 -1.265625 3.15625 -1.265625q1.953125 0 3.09375 1.296875q1.15625 1.28125 1.15625 3.5zm-7.078125 0q0 1.765625 0.703125 2.703125q0.71875 0.9375 2.109375 0.9375q1.375 0 2.078125 -0.921875q0.71875 -0.9375 0.71875 -2.71875q0 -1.765625 -0.71875 -2.6875q-0.703125 -0.921875 -2.09375 -0.921875q-1.390625 0 -2.09375 0.90625q-0.703125 0.90625 -0.703125 2.703125zm17.106903 4.640625l-1.703125 -5.4375q-0.15625 -0.5 -0.59375 -2.265625l-0.078125 0q-0.328125 1.46875 -0.59375 2.28125l-1.75 5.421875l-1.625 0l-2.53125 -9.265625l1.484375 0q0.890625 3.484375 1.359375 5.3125q0.46875 1.828125 0.546875 2.46875l0.0625 0q0.09375 -0.484375 0.296875 -1.25q0.203125 -0.765625 0.359375 -1.21875l1.703125 -5.3125l1.515625 0l1.671875 5.3125q0.46875 1.453125 0.640625 2.453125l0.0625 0q0.03125 -0.3125 0.171875 -0.9375q0.15625 -0.640625 1.78125 -6.828125l1.453125 0l-2.5625 9.265625l-1.671875 0zm11.884613 -2.53125q0 1.296875 -0.96875 2.0q-0.953125 0.703125 -2.703125 0.703125q-1.84375 0 -2.875 -0.59375l0 -1.296875q0.671875 0.34375 1.4375 0.546875q0.765625 0.1875 1.46875 0.1875q1.109375 0 1.703125 -0.34375q0.59375 -0.359375 0.59375 -1.078125q0 -0.546875 -0.484375 -0.921875q-0.46875 -0.390625 -1.828125 -0.921875q-1.296875 -0.484375 -1.84375 -0.84375q-0.53125 -0.359375 -0.8125 -0.8125q-0.265625 -0.453125 -0.265625 -1.09375q0 -1.125 0.921875 -1.78125q0.921875 -0.65625 2.53125 -0.65625q1.5 0 2.9375 0.609375l-0.5 1.140625q-1.40625 -0.578125 -2.53125 -0.578125q-1.0 0 -1.515625 0.3125q-0.5 0.3125 -0.5 0.859375q0 0.375 0.1875 0.640625q0.1875 0.265625 0.609375 0.5q0.421875 0.234375 1.625 0.6875q1.65625 0.59375 2.234375 1.203125q0.578125 0.609375 0.578125 1.53125zm6.2039185 2.703125q-2.0625 0 -3.25 -1.25q-1.1875 -1.25 -1.1875 -3.484375q0 -2.234375 1.109375 -3.546875q1.109375 -1.328125 2.96875 -1.328125q1.734375 0 2.75 1.140625q1.015625 1.140625 1.015625 3.03125l0 0.890625l-6.390625 0q0.046875 1.625 0.828125 2.46875q0.78125 0.84375 2.203125 0.84375q1.5 0 2.96875 -0.625l0 1.25q-0.75 0.328125 -1.421875 0.46875q-0.65625 0.140625 -1.59375 0.140625zm-0.375 -8.4375q-1.125 0 -1.796875 0.734375q-0.65625 0.71875 -0.765625 2.0l4.84375 0q0 -1.328125 -0.59375 -2.03125q-0.59375 -0.703125 -1.6875 -0.703125zm10.40918 -1.171875q0.625 0 1.109375 0.09375l-0.1875 1.3125q-0.578125 -0.140625 -1.015625 -0.140625q-1.125 0 -1.9375 0.921875q-0.796875 0.90625 -0.796875 2.28125l0 4.96875l-1.40625 0l0 -9.265625l1.15625 0l0.171875 1.703125l0.0625 0q0.515625 -0.90625 1.234375 -1.390625q0.734375 -0.484375 1.609375 -0.484375zm4.323395 7.421875l0.125 0.203125q-0.21875 0.84375 -0.640625 1.953125q-0.40625 1.125 -0.859375 2.09375l-1.0625 0q0.234375 -0.875 0.5 -2.171875q0.28125 -1.296875 0.390625 -2.078125l1.546875 0zm13.576813 0.765625l-0.078125 0q-0.96875 1.421875 -2.90625 1.421875q-1.8125 0 -2.828125 -1.234375q-1.015625 -1.25 -1.015625 -3.546875q0 -2.296875 1.015625 -3.5625q1.015625 -1.265625 2.828125 -1.265625q1.890625 0 2.890625 1.359375l0.109375 0l-0.046875 -0.65625l-0.046875 -0.65625l0 -3.78125l1.40625 0l0 13.171875l-1.140625 0l-0.1875 -1.25zm-2.8125 0.25q1.453125 0 2.09375 -0.78125q0.640625 -0.796875 0.640625 -2.53125l0 -0.296875q0 -1.96875 -0.65625 -2.8125q-0.65625 -0.84375 -2.09375 -0.84375q-1.234375 0 -1.890625 0.96875q-0.65625 0.953125 -0.65625 2.703125q0 1.78125 0.65625 2.6875q0.65625 0.90625 1.90625 0.90625zm11.040436 1.171875q-2.0625 0 -3.25 -1.25q-1.1875 -1.25 -1.1875 -3.484375q0 -2.234375 1.109375 -3.546875q1.109375 -1.328125 2.96875 -1.328125q1.734375 0 2.75 1.140625q1.015625 1.140625 1.015625 3.03125l0 0.890625l-6.390625 0q0.046875 1.625 0.828125 2.46875q0.78125 0.84375 2.203125 0.84375q1.5 0 2.96875 -0.625l0 1.25q-0.75 0.328125 -1.421875 0.46875q-0.65625 0.140625 -1.59375 0.140625zm-0.375 -8.4375q-1.125 0 -1.796875 0.734375q-0.65625 0.71875 -0.765625 2.0l4.84375 0q0 -1.328125 -0.59375 -2.03125q-0.59375 -0.703125 -1.6875 -0.703125zm10.40918 -1.171875q0.625 0 1.109375 0.09375l-0.1875 1.3125q-0.578125 -0.140625 -1.015625 -0.140625q-1.125 0 -1.9375 0.921875q-0.796875 0.90625 -0.796875 2.28125l0 4.96875l-1.40625 0l0 -9.265625l1.15625 0l0.171875 1.703125l0.0625 0q0.515625 -0.90625 1.234375 -1.390625q0.734375 -0.484375 1.609375 -0.484375zm18.355927 9.4375l-1.421875 0l-2.5 -8.28125q-0.171875 -0.546875 -0.390625 -1.390625q-0.21875 -0.84375 -0.234375 -1.0q-0.1875 1.109375 -0.59375 2.4375l-2.421875 8.234375l-1.421875 0l-3.2812805 -12.375l1.515625 0l1.9531555 7.640625q0.40625 1.609375 0.59375 2.921875q0.234375 -1.5625 0.671875 -3.03125l2.21875 -7.53125l1.53125 0l2.328125 7.59375q0.40625 1.3125 0.6875 2.96875q0.15625 -1.203125 0.609375 -2.9375l1.9375 -7.625l1.53125 0l-3.3125 12.375zm8.948303 0.171875q-2.0625 0 -3.25 -1.25q-1.1875 -1.25 -1.1875 -3.484375q0 -2.234375 1.109375 -3.546875q1.109375 -1.328125 2.96875 -1.328125q1.734375 0 2.75 1.140625q1.015625 1.140625 1.015625 3.03125l0 0.890625l-6.390625 0q0.046875 1.625 0.828125 2.46875q0.78125 0.84375 2.203125 0.84375q1.5 0 2.96875 -0.625l0 1.25q-0.75 0.328125 -1.421875 0.46875q-0.65625 0.140625 -1.59375 0.140625zm-0.375 -8.4375q-1.125 0 -1.796875 0.734375q-0.65625 0.71875 -0.765625 2.0l4.84375 0q0 -1.328125 -0.59375 -2.03125q-0.59375 -0.703125 -1.6875 -0.703125zm10.487274 -1.15625q1.828125 0 2.84375 1.25q1.015625 1.25 1.015625 3.53125q0 2.28125 -1.03125 3.546875q-1.015625 1.265625 -2.828125 1.265625q-0.890625 0 -1.6405945 -0.328125q-0.75 -0.34375 -1.265625 -1.03125l-0.09375 0l-0.296875 1.1875l-1.015625 0l0 -13.171875l1.40625 0l0 3.203125q0 1.078125 -0.0625 1.9375l0.0625 0q0.984375 -1.390625 2.9062195 -1.390625zm-0.203125 1.171875q-1.4374695 0 -2.0780945 0.828125q-0.625 0.828125 -0.625 2.78125q0 1.953125 0.65625 2.796875q0.65625 0.84375 2.0937195 0.84375q1.28125 0 1.921875 -0.9375q0.640625 -0.953125 0.640625 -2.71875q0 -1.8125 -0.640625 -2.703125q-0.640625 -0.890625 -1.96875 -0.890625zm12.493591 5.71875q0 1.296875 -0.96875 2.0q-0.953125 0.703125 -2.703125 0.703125q-1.84375 0 -2.875 -0.59375l0 -1.296875q0.671875 0.34375 1.4375 0.546875q0.765625 0.1875 1.46875 0.1875q1.109375 0 1.703125 -0.34375q0.59375 -0.359375 0.59375 -1.078125q0 -0.546875 -0.484375 -0.921875q-0.46875 -0.390625 -1.828125 -0.921875q-1.296875 -0.484375 -1.84375 -0.84375q-0.53125 -0.359375 -0.8125 -0.8125q-0.265625 -0.453125 -0.265625 -1.09375q0 -1.125 0.921875 -1.78125q0.921875 -0.65625 2.53125 -0.65625q1.5 0 2.9375 0.609375l-0.5 1.140625q-1.40625 -0.578125 -2.53125 -0.578125q-1.0 0 -1.515625 0.3125q-0.5 0.3125 -0.5 0.859375q0 0.375 0.1875 0.640625q0.1875 0.265625 0.609375 0.5q0.421875 0.234375 1.625 0.6875q1.65625 0.59375 2.234375 1.203125q0.578125 0.609375 0.578125 1.53125zm3.6882935 2.53125l-1.40625 0l0 -9.265625l1.40625 0l0 9.265625zm-1.515625 -11.78125q0 -0.484375 0.234375 -0.703125q0.234375 -0.234375 0.59375 -0.234375q0.328125 0 0.578125 0.234375q0.25 0.21875 0.25 0.703125q0 0.46875 -0.25 0.703125q-0.25 0.234375 -0.578125 0.234375q-0.359375 0 -0.59375 -0.234375q-0.234375 -0.234375 -0.234375 -0.703125zm7.4921265 10.796875q0.375 0 0.71875 -0.046875q0.34375 -0.0625 0.546875 -0.125l0 1.078125q-0.21875 0.109375 -0.671875 0.171875q-0.4375 0.078125 -0.796875 0.078125q-2.6875 0 -2.6875 -2.84375l0 -5.515625l-1.328125 0l0 -0.671875l1.328125 -0.578125l0.59375 -1.984375l0.8125 0l0 2.15625l2.6875 0l0 1.078125l-2.6875 0l0 5.46875q0 0.828125 0.390625 1.28125q0.40625 0.453125 1.09375 0.453125zm7.0391846 1.15625q-2.0625 0 -3.25 -1.25q-1.1875 -1.25 -1.1875 -3.484375q0 -2.234375 1.109375 -3.546875q1.109375 -1.328125 2.96875 -1.328125q1.734375 0 2.75 1.140625q1.015625 1.140625 1.015625 3.03125l0 0.890625l-6.390625 0q0.046875 1.625 0.828125 2.46875q0.78125 0.84375 2.203125 0.84375q1.5 0 2.96875 -0.625l0 1.25q-0.75 0.328125 -1.421875 0.46875q-0.65625 0.140625 -1.59375 0.140625zm-0.375 -8.4375q-1.125 0 -1.796875 0.734375q-0.65625 0.71875 -0.765625 2.0l4.84375 0q0 -1.328125 -0.59375 -2.03125q-0.59375 -0.703125 -1.6875 -0.703125zm12.707336 8.265625l-3.515625 -9.265625l1.5 0l2.0 5.484375q0.6875 1.9375 0.796875 2.515625l0.0625 0q0.09375 -0.453125 0.59375 -1.859375q0.5 -1.40625 2.21875 -6.140625l1.515625 0l-3.53125 9.265625l-1.640625 0zm14.665344 -4.640625q0 2.265625 -1.15625 3.546875q-1.140625 1.265625 -3.15625 1.265625q-1.234375 0 -2.203125 -0.578125q-0.96875 -0.59375 -1.5 -1.6875q-0.515625 -1.09375 -0.515625 -2.546875q0 -2.265625 1.125 -3.53125q1.140625 -1.265625 3.15625 -1.265625q1.953125 0 3.09375 1.296875q1.15625 1.28125 1.15625 3.5zm-7.078125 0q0 1.765625 0.703125 2.703125q0.71875 0.9375 2.109375 0.9375q1.375 0 2.078125 -0.921875q0.71875 -0.9375 0.71875 -2.71875q0 -1.765625 -0.71875 -2.6875q-0.703125 -0.921875 -2.09375 -0.921875q-1.390625 0 -2.09375 0.90625q-0.703125 0.90625 -0.703125 2.703125zm21.356934 4.640625l0 -6.03125q0 -1.109375 -0.484375 -1.65625q-0.46875 -0.5625 -1.46875 -0.5625q-1.3125 0 -1.9375 0.75q-0.625 0.75 -0.625 2.328125l0 5.171875l-1.40625 0l0 -6.03125q0 -1.109375 -0.46875 -1.65625q-0.46875 -0.5625 -1.484375 -0.5625q-1.3125 0 -1.9375 0.796875q-0.609375 0.78125 -0.609375 2.59375l0 4.859375l-1.40625 0l0 -9.265625l1.140625 0l0.234375 1.265625l0.0625 0q0.40625 -0.6875 1.125 -1.0625q0.71875 -0.375 1.625 -0.375q2.171875 0 2.84375 1.5625l0.0625 0q0.421875 -0.71875 1.203125 -1.140625q0.78125 -0.421875 1.796875 -0.421875q1.5625 0 2.34375 0.8125q0.796875 0.796875 0.796875 2.578125l0 6.046875l-1.40625 0z" fill-rule="nonzero"></path><path fill="#000000" d="m381.42313 107.35625q0 1.640625 -1.1875 2.5625q-1.1875 0.90625 -3.21875 0.90625q-2.203125 0 -3.390625 -0.5625l0 -1.390625q0.765625 0.3125 1.65625 0.5q0.90625 0.1875 1.78125 0.1875q1.4375 0 2.15625 -0.546875q0.734375 -0.546875 0.734375 -1.515625q0 -0.640625 -0.265625 -1.046875q-0.25 -0.421875 -0.859375 -0.765625q-0.59375 -0.34375 -1.828125 -0.78125q-1.734375 -0.625 -2.46875 -1.46875q-0.734375 -0.84375 -0.734375 -2.203125q0 -1.4375 1.0625 -2.28125q1.078125 -0.84375 2.84375 -0.84375q1.84375 0 3.40625 0.671875l-0.453125 1.25q-1.53125 -0.640625 -2.984375 -0.640625q-1.140625 0 -1.78125 0.5q-0.640625 0.484375 -0.640625 1.359375q0 0.640625 0.234375 1.0625q0.234375 0.40625 0.796875 0.75q0.5625 0.328125 1.71875 0.75q1.953125 0.6875 2.6875 1.484375q0.734375 0.796875 0.734375 2.0625zm6.2289124 3.46875q-2.0625 0 -3.25 -1.25q-1.1875 -1.25 -1.1875 -3.484375q0 -2.234375 1.109375 -3.546875q1.109375 -1.328125 2.96875 -1.328125q1.734375 0 2.75 1.140625q1.015625 1.140625 1.015625 3.03125l0 0.890625l-6.390625 0q0.046875 1.625 0.828125 2.46875q0.78125 0.84375 2.203125 0.84375q1.5 0 2.96875 -0.625l0 1.25q-0.75 0.328125 -1.421875 0.46875q-0.65625 0.140625 -1.59375 0.140625zm-0.375 -8.4375q-1.125 0 -1.796875 0.734375q-0.65625 0.71875 -0.765625 2.0l4.84375 0q0 -1.328125 -0.59375 -2.03125q-0.59375 -0.703125 -1.6875 -0.703125zm10.40921 -1.171875q0.625 0 1.109375 0.09375l-0.1875 1.3125q-0.578125 -0.140625 -1.015625 -0.140625q-1.125 0 -1.9375 0.921875q-0.796875 0.90625 -0.796875 2.28125l0 4.96875l-1.40625 0l0 -9.265625l1.15625 0l0.171875 1.703125l0.0625 0q0.515625 -0.90625 1.234375 -1.390625q0.734375 -0.484375 1.609375 -0.484375zm4.87027 9.4375l-3.515625 -9.265625l1.5 0l2.0 5.484375q0.6875 1.9375 0.796875 2.515625l0.0625 0q0.09375 -0.453125 0.59375 -1.859375q0.5 -1.40625 2.21875 -6.140625l1.515625 0l-3.53125 9.265625l-1.640625 0zm10.571594 0.171875q-2.0625 0 -3.25 -1.25q-1.1875 -1.25 -1.1875 -3.484375q0 -2.234375 1.109375 -3.546875q1.109375 -1.328125 2.96875 -1.328125q1.734375 0 2.75 1.140625q1.015625 1.140625 1.015625 3.03125l0 0.890625l-6.390625 0q0.046875 1.625 0.828125 2.46875q0.78125 0.84375 2.203125 0.84375q1.5 0 2.96875 -0.625l0 1.25q-0.75 0.328125 -1.421875 0.46875q-0.65625 0.140625 -1.59375 0.140625zm-0.375 -8.4375q-1.125 0 -1.796875 0.734375q-0.65625 0.71875 -0.765625 2.0l4.84375 0q0 -1.328125 -0.59375 -2.03125q-0.59375 -0.703125 -1.6875 -0.703125zm10.40921 -1.171875q0.625 0 1.109375 0.09375l-0.1875 1.3125q-0.578125 -0.140625 -1.015625 -0.140625q-1.125 0 -1.9375 0.921875q-0.796875 0.90625 -0.796875 2.28125l0 4.96875l-1.40625 0l0 -9.265625l1.15625 0l0.171875 1.703125l0.0625 0q0.515625 -0.90625 1.234375 -1.390625q0.734375 -0.484375 1.609375 -0.484375zm13.043396 9.4375l-0.28125 -1.3125l-0.0625 0q-0.6875 0.859375 -1.390625 1.171875q-0.6875 0.3125 -1.71875 0.3125q-1.375 0 -2.15625 -0.703125q-0.78125 -0.71875 -0.78125 -2.03125q0 -2.8125 4.484375 -2.953125l1.578125 -0.046875l0 -0.578125q0 -1.078125 -0.46875 -1.59375q-0.46875 -0.53125 -1.5 -0.53125q-1.15625 0 -2.625 0.703125l-0.421875 -1.0625q0.671875 -0.375 1.484375 -0.578125q0.828125 -0.21875 1.640625 -0.21875q1.671875 0 2.46875 0.734375q0.796875 0.734375 0.796875 2.359375l0 6.328125l-1.046875 0zm-3.171875 -0.984375q1.3125 0 2.0625 -0.71875q0.75 -0.71875 0.75 -2.015625l0 -0.84375l-1.40625 0.0625q-1.671875 0.0625 -2.421875 0.53125q-0.734375 0.453125 -0.734375 1.421875q0 0.765625 0.453125 1.171875q0.46875 0.390625 1.296875 0.390625zm13.449585 0.984375l0 -6.0q0 -1.125 -0.515625 -1.6875q-0.515625 -0.5625 -1.609375 -0.5625q-1.453125 0 -2.140625 0.796875q-0.671875 0.78125 -0.671875 2.59375l0 4.859375l-1.40625 0l0 -9.265625l1.140625 0l0.234375 1.265625l0.0625 0q0.4375 -0.6875 1.21875 -1.0625q0.78125 -0.375 1.734375 -0.375q1.671875 0 2.515625 0.8125q0.84375 0.796875 0.84375 2.578125l0 6.046875l-1.40625 0zm8.479218 -8.1875l-2.359375 0l0 8.1875l-1.40625 0l0 -8.1875l-1.65625 0l0 -0.625l1.65625 -0.515625l0 -0.515625q0 -3.421875 2.984375 -3.421875q0.734375 0 1.71875 0.296875l-0.359375 1.125q-0.8125 -0.25 -1.390625 -0.25q-0.796875 0 -1.171875 0.53125q-0.375 0.515625 -0.375 1.6875l0 0.609375l2.359375 0l0 1.078125zm9.700073 3.546875q0 2.265625 -1.15625 3.546875q-1.140625 1.265625 -3.15625 1.265625q-1.234375 0 -2.203125 -0.578125q-0.96875 -0.59375 -1.5 -1.6875q-0.515625 -1.09375 -0.515625 -2.546875q0 -2.265625 1.125 -3.53125q1.140625 -1.265625 3.15625 -1.265625q1.953125 0 3.09375 1.296875q1.15625 1.28125 1.15625 3.5zm-7.078125 0q0 1.765625 0.703125 2.703125q0.71875 0.9375 2.109375 0.9375q1.375 0 2.078125 -0.921875q0.71875 -0.9375 0.71875 -2.71875q0 -1.765625 -0.71875 -2.6875q-0.703125 -0.921875 -2.09375 -0.921875q-1.390625 0 -2.09375 0.90625q-0.703125 0.90625 -0.703125 2.703125zm13.763123 -4.796875q0.625 0 1.109375 0.09375l-0.1875 1.3125q-0.578125 -0.140625 -1.015625 -0.140625q-1.125 0 -1.9375 0.921875q-0.796875 0.90625 -0.796875 2.28125l0 4.96875l-1.40625 0l0 -9.265625l1.15625 0l0.171875 1.703125l0.0625 0q0.515625 -0.90625 1.234375 -1.390625q0.734375 -0.484375 1.609375 -0.484375zm9.15152 8.1875l-0.078125 0q-0.96875 1.421875 -2.90625 1.421875q-1.8125 0 -2.828125 -1.234375q-1.015625 -1.25 -1.015625 -3.546875q0 -2.296875 1.015625 -3.5625q1.015625 -1.265625 2.828125 -1.265625q1.890625 0 2.890625 1.359375l0.109375 0l-0.046875 -0.65625l-0.046875 -0.65625l0 -3.78125l1.40625 0l0 13.171875l-1.140625 0l-0.1875 -1.25zm-2.8125 0.25q1.453125 0 2.09375 -0.78125q0.640625 -0.796875 0.640625 -2.53125l0 -0.296875q0 -1.96875 -0.65625 -2.8125q-0.65625 -0.84375 -2.09375 -0.84375q-1.234375 0 -1.890625 0.96875q-0.65625 0.953125 -0.65625 2.703125q0 1.78125 0.65625 2.6875q0.65625 0.90625 1.90625 0.90625zm11.040466 1.171875q-2.0625 0 -3.25 -1.25q-1.1875 -1.25 -1.1875 -3.484375q0 -2.234375 1.109375 -3.546875q1.109375 -1.328125 2.96875 -1.328125q1.734375 0 2.75 1.140625q1.015625 1.140625 1.015625 3.03125l0 0.890625l-6.390625 0q0.046875 1.625 0.828125 2.46875q0.78125 0.84375 2.203125 0.84375q1.5 0 2.96875 -0.625l0 1.25q-0.75 0.328125 -1.421875 0.46875q-0.65625 0.140625 -1.59375 0.140625zm-0.375 -8.4375q-1.125 0 -1.796875 0.734375q-0.65625 0.71875 -0.765625 2.0l4.84375 0q0 -1.328125 -0.59375 -2.03125q-0.59375 -0.703125 -1.6875 -0.703125zm10.40918 -1.171875q0.625 0 1.109375 0.09375l-0.1875 1.3125q-0.578125 -0.140625 -1.015625 -0.140625q-1.125 0 -1.9375 0.921875q-0.796875 0.90625 -0.796875 2.28125l0 4.96875l-1.40625 0l0 -9.265625l1.15625 0l0.171875 1.703125l0.0625 0q0.515625 -0.90625 1.234375 -1.390625q0.734375 -0.484375 1.609375 -0.484375zm5.83902 8.453125q0.375 0 0.71875 -0.046875q0.34375 -0.0625 0.546875 -0.125l0 1.078125q-0.21875 0.109375 -0.671875 0.171875q-0.4375 0.078125 -0.796875 0.078125q-2.6875 0 -2.6875 -2.84375l0 -5.515625l-1.328125 0l0 -0.671875l1.328125 -0.578125l0.59375 -1.984375l0.8125 0l0 2.15625l2.6875 0l0 1.078125l-2.6875 0l0 5.46875q0 0.828125 0.390625 1.28125q0.40625 0.453125 1.09375 0.453125zm8.946655 -8.28125l0 6.015625q0 1.125 0.515625 1.6875q0.515625 0.5625 1.609375 0.5625q1.453125 0 2.125 -0.796875q0.671875 -0.796875 0.671875 -2.609375l0 -4.859375l1.40625 0l0 9.265625l-1.15625 0l-0.203125 -1.25l-0.078125 0q-0.421875 0.6875 -1.1875 1.0625q-0.765625 0.359375 -1.75 0.359375q-1.6875 0 -2.53125 -0.796875q-0.84375 -0.8125 -0.84375 -2.578125l0 -6.0625l1.421875 0zm15.651123 9.265625l0 -6.0q0 -1.125 -0.515625 -1.6875q-0.515625 -0.5625 -1.609375 -0.5625q-1.453125 0 -2.140625 0.796875q-0.671875 0.78125 -0.671875 2.59375l0 4.859375l-1.40625 0l0 -9.265625l1.140625 0l0.234375 1.265625l0.0625 0q0.4375 -0.6875 1.21875 -1.0625q0.78125 -0.375 1.734375 -0.375q1.671875 0 2.515625 0.8125q0.84375 0.796875 0.84375 2.578125l0 6.046875l-1.40625 0zm10.604248 -1.25l-0.078125 0q-0.96875 1.421875 -2.90625 1.421875q-1.8125 0 -2.828125 -1.234375q-1.015625 -1.25 -1.015625 -3.546875q0 -2.296875 1.015625 -3.5625q1.015625 -1.265625 2.828125 -1.265625q1.890625 0 2.890625 1.359375l0.109375 0l-0.046875 -0.65625l-0.046875 -0.65625l0 -3.78125l1.40625 0l0 13.171875l-1.140625 0l-0.1875 -1.25zm-2.8125 0.25q1.453125 0 2.09375 -0.78125q0.640625 -0.796875 0.640625 -2.53125l0 -0.296875q0 -1.96875 -0.65625 -2.8125q-0.65625 -0.84375 -2.09375 -0.84375q-1.234375 0 -1.890625 0.96875q-0.65625 0.953125 -0.65625 2.703125q0 1.78125 0.65625 2.6875q0.65625 0.90625 1.90625 0.90625zm17.604187 -1.53125q0 1.296875 -0.96875 2.0q-0.953125 0.703125 -2.703125 0.703125q-1.84375 0 -2.875 -0.59375l0 -1.296875q0.671875 0.34375 1.4375 0.546875q0.765625 0.1875 1.46875 0.1875q1.109375 0 1.703125 -0.34375q0.59375 -0.359375 0.59375 -1.078125q0 -0.546875 -0.484375 -0.921875q-0.46875 -0.390625 -1.828125 -0.921875q-1.296875 -0.484375 -1.84375 -0.84375q-0.53125 -0.359375 -0.8125 -0.8125q-0.265625 -0.453125 -0.265625 -1.09375q0 -1.125 0.921875 -1.78125q0.921875 -0.65625 2.53125 -0.65625q1.5 0 2.9375 0.609375l-0.5 1.140625q-1.40625 -0.578125 -2.53125 -0.578125q-1.0 0 -1.515625 0.3125q-0.5 0.3125 -0.5 0.859375q0 0.375 0.1875 0.640625q0.1875 0.265625 0.609375 0.5q0.421875 0.234375 1.625 0.6875q1.65625 0.59375 2.234375 1.203125q0.578125 0.609375 0.578125 1.53125zm7.9851685 2.53125l-0.28125 -1.3125l-0.0625 0q-0.6875 0.859375 -1.390625 1.171875q-0.6875 0.3125 -1.71875 0.3125q-1.375 0 -2.15625 -0.703125q-0.78125 -0.71875 -0.78125 -2.03125q0 -2.8125 4.484375 -2.953125l1.578125 -0.046875l0 -0.578125q0 -1.078125 -0.46875 -1.59375q-0.46875 -0.53125 -1.5 -0.53125q-1.15625 0 -2.625 0.703125l-0.421875 -1.0625q0.671875 -0.375 1.484375 -0.578125q0.828125 -0.21875 1.640625 -0.21875q1.671875 0 2.46875 0.734375q0.796875 0.734375 0.796875 2.359375l0 6.328125l-1.046875 0zm-3.171875 -0.984375q1.3125 0 2.0625 -0.71875q0.75 -0.71875 0.75 -2.015625l0 -0.84375l-1.40625 0.0625q-1.671875 0.0625 -2.421875 0.53125q-0.734375 0.453125 -0.734375 1.421875q0 0.765625 0.453125 1.171875q0.46875 0.390625 1.296875 0.390625zm18.93396 0.984375l0 -6.03125q0 -1.109375 -0.484375 -1.65625q-0.46875 -0.5625 -1.46875 -0.5625q-1.3125 0 -1.9375 0.75q-0.625 0.75 -0.625 2.328125l0 5.171875l-1.40625 0l0 -6.03125q0 -1.109375 -0.46875 -1.65625q-0.46875 -0.5625 -1.484375 -0.5625q-1.3125 0 -1.9375 0.796875q-0.609375 0.78125 -0.609375 2.59375l0 4.859375l-1.40625 0l0 -9.265625l1.140625 0l0.234375 1.265625l0.0625 0q0.40625 -0.6875 1.125 -1.0625q0.71875 -0.375 1.625 -0.375q2.171875 0 2.84375 1.5625l0.0625 0q0.421875 -0.71875 1.203125 -1.140625q0.78125 -0.421875 1.796875 -0.421875q1.5625 0 2.34375 0.8125q0.796875 0.796875 0.796875 2.578125l0 6.046875l-1.40625 0zm7.290039 -0.984375q0.375 0 0.71875 -0.046875q0.34375 -0.0625 0.546875 -0.125l0 1.078125q-0.21875 0.109375 -0.671875 0.171875q-0.4375 0.078125 -0.796875 0.078125q-2.6875 0 -2.6875 -2.84375l0 -5.515625l-1.328125 0l0 -0.671875l1.328125 -0.578125l0.59375 -1.984375l0.8125 0l0 2.15625l2.6875 0l0 1.078125l-2.6875 0l0 5.46875q0 0.828125 0.390625 1.28125q0.40625 0.453125 1.09375 0.453125z" fill-rule="nonzero"></path><path fill="#000000" d="m389.38965 120.3875q-2.046875 0 -3.234375 1.359375q-1.171875 1.359375 -1.171875 3.71875q0 2.4375 1.140625 3.765625q1.140625 1.3125 3.25 1.3125q1.296875 0 2.953125 -0.46875l0 1.265625q-1.296875 0.484375 -3.171875 0.484375q-2.734375 0 -4.21875 -1.65625q-1.484375 -1.65625 -1.484375 -4.71875q0 -1.90625 0.703125 -3.34375q0.71875 -1.4375 2.0625 -2.21875q1.359375 -0.78125 3.1875 -0.78125q1.9375 0 3.40625 0.703125l-0.609375 1.234375q-1.40625 -0.65625 -2.8125 -0.65625zm13.43161 6.625q0 2.265625 -1.15625 3.546875q-1.140625 1.265625 -3.15625 1.265625q-1.234375 0 -2.203125 -0.578125q-0.96875 -0.59375 -1.5 -1.6875q-0.515625 -1.09375 -0.515625 -2.546875q0 -2.265625 1.125 -3.53125q1.140625 -1.265625 3.15625 -1.265625q1.953125 0 3.09375 1.296875q1.15625 1.28125 1.15625 3.5zm-7.078125 0q0 1.765625 0.703125 2.703125q0.71875 0.9375 2.109375 0.9375q1.375 0 2.078125 -0.921875q0.71875 -0.9375 0.71875 -2.71875q0 -1.765625 -0.71875 -2.6875q-0.703125 -0.921875 -2.09375 -0.921875q-1.390625 0 -2.09375 0.90625q-0.703125 0.90625 -0.703125 2.703125zm17.544373 0q0 2.265625 -1.15625 3.546875q-1.140625 1.265625 -3.15625 1.265625q-1.234375 0 -2.203125 -0.578125q-0.96875 -0.59375 -1.5 -1.6875q-0.515625 -1.09375 -0.515625 -2.546875q0 -2.265625 1.125 -3.53125q1.140625 -1.265625 3.15625 -1.265625q1.953125 0 3.09375 1.296875q1.15625 1.28125 1.15625 3.5zm-7.078125 0q0 1.765625 0.703125 2.703125q0.71875 0.9375 2.109375 0.9375q1.375 0 2.078125 -0.921875q0.71875 -0.9375 0.71875 -2.71875q0 -1.765625 -0.71875 -2.6875q-0.703125 -0.921875 -2.09375 -0.921875q-1.390625 0 -2.09375 0.90625q-0.703125 0.90625 -0.703125 2.703125zm10.919403 -0.109375q0.359375 -0.515625 1.109375 -1.34375l3.0 -3.171875l1.65625 0l-3.75 3.9375l4.015625 5.328125l-1.703125 0l-3.265625 -4.375l-1.0625 0.90625l0 3.46875l-1.390625 0l0 -13.171875l1.390625 0l0 6.984375q0 0.46875 -0.0625 1.4375l0.0625 0zm9.111206 4.75l-1.40625 0l0 -9.265625l1.40625 0l0 9.265625zm-1.515625 -11.78125q0 -0.484375 0.234375 -0.703125q0.234375 -0.234375 0.59375 -0.234375q0.328125 0 0.578125 0.234375q0.25 0.21875 0.25 0.703125q0 0.46875 -0.25 0.703125q-0.25 0.234375 -0.578125 0.234375q-0.359375 0 -0.59375 -0.234375q-0.234375 -0.234375 -0.234375 -0.703125zm8.414032 11.953125q-2.0625 0 -3.25 -1.25q-1.1875 -1.25 -1.1875 -3.484375q0 -2.234375 1.109375 -3.546875q1.109375 -1.328125 2.96875 -1.328125q1.734375 0 2.75 1.140625q1.015625 1.140625 1.015625 3.03125l0 0.890625l-6.390625 0q0.046875 1.625 0.828125 2.46875q0.78125 0.84375 2.203125 0.84375q1.5 0 2.96875 -0.625l0 1.25q-0.75 0.328125 -1.421875 0.46875q-0.65625 0.140625 -1.59375 0.140625zm-0.375 -8.4375q-1.125 0 -1.796875 0.734375q-0.65625 0.71875 -0.765625 2.0l4.84375 0q0 -1.328125 -0.59375 -2.03125q-0.59375 -0.703125 -1.6875 -0.703125zm18.738586 -0.5q0 1.875 -1.28125 2.890625q-1.28125 1.015625 -3.671875 1.015625l-1.453125 0l0 4.859375l-1.4375 0l0 -12.375l3.203125 0q4.640625 0 4.640625 3.609375zm-6.40625 2.671875l1.296875 0q1.90625 0 2.765625 -0.609375q0.859375 -0.625 0.859375 -2.0q0 -1.21875 -0.8125 -1.8125q-0.796875 -0.609375 -2.5 -0.609375l-1.609375 0l0 5.03125zm16.791779 1.453125q0 2.265625 -1.15625 3.546875q-1.140625 1.265625 -3.15625 1.265625q-1.234375 0 -2.203125 -0.578125q-0.96875 -0.59375 -1.5 -1.6875q-0.515625 -1.09375 -0.515625 -2.546875q0 -2.265625 1.125 -3.53125q1.140625 -1.265625 3.15625 -1.265625q1.953125 0 3.09375 1.296875q1.15625 1.28125 1.15625 3.5zm-7.078125 0q0 1.765625 0.703125 2.703125q0.71875 0.9375 2.109375 0.9375q1.375 0 2.078125 -0.921875q0.71875 -0.9375 0.71875 -2.71875q0 -1.765625 -0.71875 -2.6875q-0.703125 -0.921875 -2.09375 -0.921875q-1.390625 0 -2.09375 0.90625q-0.703125 0.90625 -0.703125 2.703125zm13.841278 4.8125q-0.890625 0 -1.640625 -0.328125q-0.75 -0.34375 -1.265625 -1.03125l-0.09375 0q0.09375 0.8125 0.09375 1.53125l0 3.8125l-1.40625 0l0 -13.421875l1.140625 0l0.203125 1.265625l0.0625 0q0.546875 -0.765625 1.265625 -1.09375q0.71875 -0.34375 1.640625 -0.34375q1.859375 0 2.859375 1.265625q1.0 1.25 1.0 3.53125q0 2.28125 -1.03125 3.546875q-1.015625 1.265625 -2.828125 1.265625zm-0.203125 -8.421875q-1.40625 0 -2.046875 0.796875q-0.640625 0.78125 -0.65625 2.5l0 0.3125q0 1.953125 0.65625 2.796875q0.65625 0.84375 2.09375 0.84375q1.203125 0 1.875 -0.96875q0.6875 -0.984375 0.6875 -2.6875q0 -1.734375 -0.6875 -2.65625q-0.671875 -0.9375 -1.921875 -0.9375zm7.837311 -1.015625l0 6.015625q0 1.125 0.515625 1.6875q0.515625 0.5625 1.609375 0.5625q1.453125 0 2.125 -0.796875q0.671875 -0.796875 0.671875 -2.609375l0 -4.859375l1.40625 0l0 9.265625l-1.15625 0l-0.203125 -1.25l-0.078125 0q-0.421875 0.6875 -1.1875 1.0625q-0.765625 0.359375 -1.75 0.359375q-1.6875 0 -2.53125 -0.796875q-0.84375 -0.8125 -0.84375 -2.578125l0 -6.0625l1.421875 0zm13.619843 9.4375q-0.890625 0 -1.640625 -0.328125q-0.75 -0.34375 -1.265625 -1.03125l-0.09375 0q0.09375 0.8125 0.09375 1.53125l0 3.8125l-1.40625 0l0 -13.421875l1.140625 0l0.203125 1.265625l0.0625 0q0.546875 -0.765625 1.265625 -1.09375q0.71875 -0.34375 1.640625 -0.34375q1.859375 0 2.859375 1.265625q1.0 1.25 1.0 3.53125q0 2.28125 -1.03125 3.546875q-1.015625 1.265625 -2.828125 1.265625zm-0.203125 -8.421875q-1.40625 0 -2.046875 0.796875q-0.640625 0.78125 -0.65625 2.5l0 0.3125q0 1.953125 0.65625 2.796875q0.65625 0.84375 2.09375 0.84375q1.203125 0 1.875 -0.96875q0.6875 -0.984375 0.6875 -2.6875q0 -1.734375 -0.6875 -2.65625q-0.671875 -0.9375 -1.921875 -0.9375zm17.322937 7.0l-0.078125 0q-0.96875 1.421875 -2.90625 1.421875q-1.8125 0 -2.828125 -1.234375q-1.015625 -1.25 -1.015625 -3.546875q0 -2.296875 1.015625 -3.5625q1.015625 -1.265625 2.828125 -1.265625q1.890625 0 2.890625 1.359375l0.109375 0l-0.046875 -0.65625l-0.046875 -0.65625l0 -3.78125l1.40625 0l0 13.171875l-1.140625 0l-0.1875 -1.25zm-2.8125 0.25q1.453125 0 2.09375 -0.78125q0.640625 -0.796875 0.640625 -2.53125l0 -0.296875q0 -1.96875 -0.65625 -2.8125q-0.65625 -0.84375 -2.09375 -0.84375q-1.234375 0 -1.890625 0.96875q-0.65625 0.953125 -0.65625 2.703125q0 1.78125 0.65625 2.6875q0.65625 0.90625 1.90625 0.90625zm11.040436 1.171875q-2.0625 0 -3.25 -1.25q-1.1875 -1.25 -1.1875 -3.484375q0 -2.234375 1.109375 -3.546875q1.109375 -1.328125 2.96875 -1.328125q1.734375 0 2.75 1.140625q1.015625 1.140625 1.015625 3.03125l0 0.890625l-6.390625 0q0.046875 1.625 0.828125 2.46875q0.78125 0.84375 2.203125 0.84375q1.5 0 2.96875 -0.625l0 1.25q-0.75 0.328125 -1.421875 0.46875q-0.65625 0.140625 -1.59375 0.140625zm-0.375 -8.4375q-1.125 0 -1.796875 0.734375q-0.65625 0.71875 -0.765625 2.0l4.84375 0q0 -1.328125 -0.59375 -2.03125q-0.59375 -0.703125 -1.6875 -0.703125zm12.15918 5.734375q0 1.296875 -0.96875 2.0q-0.953125 0.703125 -2.703125 0.703125q-1.84375 0 -2.875 -0.59375l0 -1.296875q0.671875 0.34375 1.4375 0.546875q0.765625 0.1875 1.46875 0.1875q1.109375 0 1.703125 -0.34375q0.59375 -0.359375 0.59375 -1.078125q0 -0.546875 -0.484375 -0.921875q-0.46875 -0.390625 -1.828125 -0.921875q-1.296875 -0.484375 -1.84375 -0.84375q-0.53125 -0.359375 -0.8125 -0.8125q-0.265625 -0.453125 -0.265625 -1.09375q0 -1.125 0.921875 -1.78125q0.921875 -0.65625 2.53125 -0.65625q1.5 0 2.9375 0.609375l-0.5 1.140625q-1.40625 -0.578125 -2.53125 -0.578125q-1.0 0 -1.515625 0.3125q-0.5 0.3125 -0.5 0.859375q0 0.375 0.1875 0.640625q0.1875 0.265625 0.609375 0.5q0.421875 0.234375 1.625 0.6875q1.65625 0.59375 2.234375 1.203125q0.578125 0.609375 0.578125 1.53125zm12.29895 -8.734375q-2.046875 0 -3.234375 1.359375q-1.171875 1.359375 -1.171875 3.71875q0 2.4375 1.140625 3.765625q1.140625 1.3125 3.25 1.3125q1.296875 0 2.953125 -0.46875l0 1.265625q-1.296875 0.484375 -3.171875 0.484375q-2.734375 0 -4.21875 -1.65625q-1.484375 -1.65625 -1.484375 -4.71875q0 -1.90625 0.703125 -3.34375q0.71875 -1.4375 2.0625 -2.21875q1.359375 -0.78125 3.1875 -0.78125q1.9375 0 3.40625 0.703125l-0.609375 1.234375q-1.40625 -0.65625 -2.8125 -0.65625zm11.103455 11.265625l-4.1875 -10.96875l-0.078125 0q0.125 1.3125 0.125 3.09375l0 7.875l-1.328125 0l0 -12.375l2.15625 0l3.921875 10.203125l0.078125 0l3.9375 -10.203125l2.15625 0l0 12.375l-1.4375 0l0 -7.96875q0 -1.375 0.109375 -2.984375l-0.0625 0l-4.234375 10.953125l-1.15625 0zm18.01941 -8.765625q0 1.875 -1.28125 2.890625q-1.28125 1.015625 -3.671875 1.015625l-1.453125 0l0 4.859375l-1.4375 0l0 -12.375l3.203125 0q4.640625 0 4.640625 3.609375zm-6.40625 2.671875l1.296875 0q1.90625 0 2.765625 -0.609375q0.859375 -0.625 0.859375 -2.0q0 -1.21875 -0.8125 -1.8125q-0.796875 -0.609375 -2.5 -0.609375l-1.609375 0l0 5.03125zm14.760559 3.5625q0 1.296875 -0.96875 2.0q-0.953125 0.703125 -2.703125 0.703125q-1.84375 0 -2.875 -0.59375l0 -1.296875q0.671875 0.34375 1.4375 0.546875q0.765625 0.1875 1.46875 0.1875q1.109375 0 1.703125 -0.34375q0.59375 -0.359375 0.59375 -1.078125q0 -0.546875 -0.484375 -0.921875q-0.46875 -0.390625 -1.828125 -0.921875q-1.296875 -0.484375 -1.84375 -0.84375q-0.53125 -0.359375 -0.8125 -0.8125q-0.265625 -0.453125 -0.265625 -1.09375q0 -1.125 0.921875 -1.78125q0.921875 -0.65625 2.53125 -0.65625q1.5 0 2.9375 0.609375l-0.5 1.140625q-1.40625 -0.578125 -2.53125 -0.578125q-1.0 0 -1.515625 0.3125q-0.5 0.3125 -0.5 0.859375q0 0.375 0.1875 0.640625q0.1875 0.265625 0.609375 0.5q0.421875 0.234375 1.625 0.6875q1.65625 0.59375 2.234375 1.203125q0.578125 0.609375 0.578125 1.53125z" fill-rule="nonzero"></path><path fill="#000000" d="m458.14087 152.65312l-0.28125 -1.3125l-0.0625 0q-0.6875 0.859375 -1.390625 1.171875q-0.6875 0.3125 -1.71875 0.3125q-1.375 0 -2.15625 -0.703125q-0.78125 -0.71875 -0.78125 -2.03125q0 -2.8125 4.484375 -2.953125l1.578125 -0.046875l0 -0.578125q0 -1.078125 -0.46875 -1.59375q-0.46875 -0.53125 -1.5 -0.53125q-1.15625 0 -2.625 0.703125l-0.421875 -1.0625q0.671875 -0.375 1.484375 -0.578125q0.828125 -0.21875 1.640625 -0.21875q1.671875 0 2.46875 0.734375q0.796875 0.734375 0.796875 2.359375l0 6.328125l-1.046875 0zm-3.171875 -0.984375q1.3125 0 2.0625 -0.71875q0.75 -0.71875 0.75 -2.015625l0 -0.84375l-1.40625 0.0625q-1.671875 0.0625 -2.421875 0.53125q-0.734375 0.453125 -0.734375 1.421875q0 0.765625 0.453125 1.171875q0.46875 0.390625 1.296875 0.390625zm13.449585 0.984375l0 -6.0q0 -1.125 -0.515625 -1.6875q-0.515625 -0.5625 -1.609375 -0.5625q-1.453125 0 -2.140625 0.796875q-0.671875 0.78125 -0.671875 2.59375l0 4.859375l-1.40625 0l0 -9.265625l1.140625 0l0.234375 1.265625l0.0625 0q0.4375 -0.6875 1.21875 -1.0625q0.78125 -0.375 1.734375 -0.375q1.671875 0 2.515625 0.8125q0.84375 0.796875 0.84375 2.578125l0 6.046875l-1.40625 0zm10.229248 0l-6.734375 0l0 -0.953125l5.0625 -7.234375l-4.75 0l0 -1.078125l6.296875 0l0 1.078125l-5.0 7.09375l5.125 0l0 1.09375zm6.090027 0.171875q-2.0625305 0 -3.2500305 -1.25q-1.1875 -1.25 -1.1875 -3.484375q0 -2.234375 1.109375 -3.546875q1.109375 -1.328125 2.9687805 -1.328125q1.734375 0 2.75 1.140625q1.015625 1.140625 1.015625 3.03125l0 0.890625l-6.3906555 0q0.046875 1.625 0.828125 2.46875q0.78125 0.84375 2.2031555 0.84375q1.5 0 2.96875 -0.625l0 1.25q-0.75 0.328125 -1.421875 0.46875q-0.65625 0.140625 -1.59375 0.140625zm-0.375 -8.4375q-1.1250305 0 -1.7969055 0.734375q-0.65625 0.71875 -0.765625 2.0l4.8437805 0q0 -1.328125 -0.59375 -2.03125q-0.59375 -0.703125 -1.6875 -0.703125zm7.5810547 8.265625l-1.40625 0l0 -9.265625l1.40625 0l0 9.265625zm-1.515625 -11.78125q0 -0.484375 0.234375 -0.703125q0.234375 -0.234375 0.59375 -0.234375q0.328125 0 0.578125 0.234375q0.25 0.21875 0.25 0.703125q0 0.46875 -0.25 0.703125q-0.25 0.234375 -0.578125 0.234375q-0.359375 0 -0.59375 -0.234375q-0.234375 -0.234375 -0.234375 -0.703125zm12.0859375 2.515625l0 0.875l-1.71875 0.203125q0.234375 0.296875 0.421875 0.78125q0.1875 0.484375 0.1875 1.078125q0 1.359375 -0.9375 2.171875q-0.921875 0.8125 -2.546875 0.8125q-0.421875 0 -0.78125 -0.0625q-0.890625 0.46875 -0.890625 1.1875q0 0.375 0.3125 0.5625q0.3125 0.1875 1.078125 0.1875l1.640625 0q1.5 0 2.296875 0.640625q0.8125 0.625 0.8125 1.828125q0 1.546875 -1.234375 2.34375q-1.234375 0.8125 -3.59375 0.8125q-1.828125 0 -2.8125 -0.671875q-0.984375 -0.671875 -0.984375 -1.90625q0 -0.84375 0.53125 -1.46875q0.546875 -0.609375 1.53125 -0.84375q-0.34375 -0.15625 -0.59375 -0.484375q-0.234375 -0.34375 -0.234375 -0.796875q0 -0.5 0.265625 -0.875q0.265625 -0.390625 0.859375 -0.75q-0.71875 -0.296875 -1.171875 -1.0q-0.453125 -0.71875 -0.453125 -1.625q0 -1.53125 0.90625 -2.34375q0.921875 -0.828125 2.59375 -0.828125q0.71875 0 1.3125 0.171875l3.203125 0zm-7.390625 10.828125q0 0.75 0.625 1.140625q0.640625 0.390625 1.828125 0.390625q1.765625 0 2.609375 -0.53125q0.859375 -0.53125 0.859375 -1.4375q0 -0.75 -0.46875 -1.046875q-0.46875 -0.296875 -1.75 -0.296875l-1.6875 0q-0.953125 0 -1.484375 0.453125q-0.53125 0.46875 -0.53125 1.328125zm0.75 -7.859375q0 0.96875 0.546875 1.46875q0.5625 0.5 1.546875 0.5q2.046875 0 2.046875 -2.0q0 -2.09375 -2.078125 -2.09375q-0.984375 0 -1.53125 0.53125q-0.53125 0.53125 -0.53125 1.59375zm11.5401 5.3125q0.375 0 0.71875 -0.046875q0.34375 -0.0625 0.546875 -0.125l0 1.078125q-0.21875 0.109375 -0.671875 0.171875q-0.4375 0.078125 -0.796875 0.078125q-2.6875 0 -2.6875 -2.84375l0 -5.515625l-1.328125 0l0 -0.671875l1.328125 -0.578125l0.59375 -1.984375l0.8125 0l0 2.15625l2.6875 0l0 1.078125l-2.6875 0l0 5.46875q0 0.828125 0.390625 1.28125q0.40625 0.453125 1.09375 0.453125z" fill-rule="nonzero"></path><path fill="#000000" fill-opacity="0.0" d="m693.3097 231.10498l247.4646 0l0 170.23624l-247.4646 0z" fill-rule="evenodd"></path><path stroke="#000000" stroke-width="1.0" stroke-linejoin="round" stroke-linecap="butt" d="m693.3097 231.10498l247.4646 0l0 170.23624l-247.4646 0z" fill-rule="evenodd"></path><path fill="#000000" d="m735.4387 322.3631l-1.421875 0l-2.5 -8.28125q-0.171875 -0.546875 -0.390625 -1.390625q-0.21875 -0.84375 -0.234375 -1.0q-0.1875 1.109375 -0.59375 2.4375l-2.421875 8.234375l-1.421875 0l-3.28125 -12.375l1.515625 0l1.953125 7.640625q0.40625 1.609375 0.59375 2.921875q0.234375 -1.5625 0.671875 -3.03125l2.21875 -7.53125l1.53125 0l2.328125 7.59375q0.40625 1.3125 0.6875 2.96875q0.15625 -1.203125 0.609375 -2.9375l1.9375 -7.625l1.53125 0l-3.3125 12.375zm8.948303 0.171875q-2.0625 0 -3.25 -1.25q-1.1875 -1.25 -1.1875 -3.484375q0 -2.234375 1.109375 -3.546875q1.109375 -1.328125 2.96875 -1.328125q1.734375 0 2.75 1.140625q1.015625 1.140625 1.015625 3.03125l0 0.890625l-6.390625 0q0.046875 1.625 0.828125 2.46875q0.78125 0.84375 2.203125 0.84375q1.5 0 2.96875 -0.625l0 1.25q-0.75 0.328125 -1.421875 0.46875q-0.65625 0.140625 -1.59375 0.140625zm-0.375 -8.4375q-1.125 0 -1.796875 0.734375q-0.65625 0.71875 -0.765625 2.0l4.84375 0q0 -1.328125 -0.59375 -2.03125q-0.59375 -0.703125 -1.6875 -0.703125zm10.487305 -1.15625q1.828125 0 2.84375 1.25q1.015625 1.25 1.015625 3.53125q0 2.28125 -1.03125 3.546875q-1.015625 1.265625 -2.828125 1.265625q-0.890625 0 -1.640625 -0.328125q-0.75 -0.34375 -1.265625 -1.03125l-0.09375 0l-0.296875 1.1875l-1.015625 0l0 -13.171875l1.40625 0l0 3.203125q0 1.078125 -0.0625 1.9375l0.0625 0q0.984375 -1.390625 2.90625 -1.390625zm-0.203125 1.171875q-1.4375 0 -2.078125 0.828125q-0.625 0.828125 -0.625 2.78125q0 1.953125 0.65625 2.796875q0.65625 0.84375 2.09375 0.84375q1.28125 0 1.921875 -0.9375q0.640625 -0.953125 0.640625 -2.71875q0 -1.8125 -0.640625 -2.703125q-0.640625 -0.890625 -1.96875 -0.890625zm12.493591 5.71875q0 1.296875 -0.96875 2.0q-0.953125 0.703125 -2.703125 0.703125q-1.84375 0 -2.875 -0.59375l0 -1.296875q0.671875 0.34375 1.4375 0.546875q0.765625 0.1875 1.46875 0.1875q1.109375 0 1.703125 -0.34375q0.59375 -0.359375 0.59375 -1.078125q0 -0.546875 -0.484375 -0.921875q-0.46875 -0.390625 -1.828125 -0.921875q-1.296875 -0.484375 -1.84375 -0.84375q-0.53125 -0.359375 -0.8125 -0.8125q-0.265625 -0.453125 -0.265625 -1.09375q0 -1.125 0.921875 -1.78125q0.921875 -0.65625 2.53125 -0.65625q1.5 0 2.9375 0.609375l-0.5 1.140625q-1.40625 -0.578125 -2.53125 -0.578125q-1.0 0 -1.515625 0.3125q-0.5 0.3125 -0.5 0.859375q0 0.375 0.1875 0.640625q0.1875 0.265625 0.609375 0.5q0.421875 0.234375 1.625 0.6875q1.65625 0.59375 2.234375 1.203125q0.578125 0.609375 0.578125 1.53125zm6.2039185 2.703125q-2.0625 0 -3.25 -1.25q-1.1875 -1.25 -1.1875 -3.484375q0 -2.234375 1.109375 -3.546875q1.109375 -1.328125 2.96875 -1.328125q1.734375 0 2.75 1.140625q1.015625 1.140625 1.015625 3.03125l0 0.890625l-6.390625 0q0.046875 1.625 0.828125 2.46875q0.78125 0.84375 2.203125 0.84375q1.5 0 2.96875 -0.625l0 1.25q-0.75 0.328125 -1.421875 0.46875q-0.65625 0.140625 -1.59375 0.140625zm-0.375 -8.4375q-1.125 0 -1.796875 0.734375q-0.65625 0.71875 -0.765625 2.0l4.84375 0q0 -1.328125 -0.59375 -2.03125q-0.59375 -0.703125 -1.6875 -0.703125zm10.40918 -1.171875q0.625 0 1.109375 0.09375l-0.1875 1.3125q-0.578125 -0.140625 -1.015625 -0.140625q-1.125 0 -1.9375 0.921875q-0.796875 0.90625 -0.796875 2.28125l0 4.96875l-1.40625 0l0 -9.265625l1.15625 0l0.171875 1.703125l0.0625 0q0.515625 -0.90625 1.234375 -1.390625q0.734375 -0.484375 1.609375 -0.484375zm4.8702393 9.4375l-3.515625 -9.265625l1.5 0l2.0 5.484375q0.6875 1.9375 0.796875 2.515625l0.0625 0q0.09375 -0.453125 0.59375 -1.859375q0.5 -1.40625 2.21875 -6.140625l1.515625 0l-3.53125 9.265625l-1.640625 0zm10.571655 0.171875q-2.0625 0 -3.25 -1.25q-1.1875 -1.25 -1.1875 -3.484375q0 -2.234375 1.109375 -3.546875q1.109375 -1.328125 2.96875 -1.328125q1.734375 0 2.75 1.140625q1.015625 1.140625 1.015625 3.03125l0 0.890625l-6.390625 0q0.046875 1.625 0.828125 2.46875q0.78125 0.84375 2.203125 0.84375q1.5 0 2.96875 -0.625l0 1.25q-0.75 0.328125 -1.421875 0.46875q-0.65625 0.140625 -1.59375 0.140625zm-0.375 -8.4375q-1.125 0 -1.796875 0.734375q-0.65625 0.71875 -0.765625 2.0l4.84375 0q0 -1.328125 -0.59375 -2.03125q-0.59375 -0.703125 -1.6875 -0.703125zm10.40918 -1.171875q0.625 0 1.109375 0.09375l-0.1875 1.3125q-0.578125 -0.140625 -1.015625 -0.140625q-1.125 0 -1.9375 0.921875q-0.796875 0.90625 -0.796875 2.28125l0 4.96875l-1.40625 0l0 -9.265625l1.15625 0l0.171875 1.703125l0.0625 0q0.515625 -0.90625 1.234375 -1.390625q0.734375 -0.484375 1.609375 -0.484375zm13.652771 8.1875l-0.078125 0q-0.96875 1.421875 -2.90625 1.421875q-1.8125 0 -2.828125 -1.234375q-1.015625 -1.25 -1.015625 -3.546875q0 -2.296875 1.015625 -3.5625q1.015625 -1.265625 2.828125 -1.265625q1.890625 0 2.890625 1.359375l0.109375 0l-0.046875 -0.65625l-0.046875 -0.65625l0 -3.78125l1.40625 0l0 13.171875l-1.140625 0l-0.1875 -1.25zm-2.8125 0.25q1.453125 0 2.09375 -0.78125q0.640625 -0.796875 0.640625 -2.53125l0 -0.296875q0 -1.96875 -0.65625 -2.8125q-0.65625 -0.84375 -2.09375 -0.84375q-1.234375 0 -1.890625 0.96875q-0.65625 0.953125 -0.65625 2.703125q0 1.78125 0.65625 2.6875q0.65625 0.90625 1.90625 0.90625zm11.040405 1.171875q-2.0625 0 -3.25 -1.25q-1.1875 -1.25 -1.1875 -3.484375q0 -2.234375 1.109375 -3.546875q1.109375 -1.328125 2.96875 -1.328125q1.734375 0 2.75 1.140625q1.015625 1.140625 1.015625 3.03125l0 0.890625l-6.390625 0q0.046875 1.625 0.828125 2.46875q0.78125 0.84375 2.203125 0.84375q1.5 0 2.96875 -0.625l0 1.25q-0.75 0.328125 -1.421875 0.46875q-0.65625 0.140625 -1.59375 0.140625zm-0.375 -8.4375q-1.125 0 -1.796875 0.734375q-0.65625 0.71875 -0.765625 2.0l4.84375 0q0 -1.328125 -0.59375 -2.03125q-0.59375 -0.703125 -1.6875 -0.703125zm10.409241 -1.171875q0.625 0 1.109375 0.09375l-0.1875 1.3125q-0.578125 -0.140625 -1.015625 -0.140625q-1.125 0 -1.9375 0.921875q-0.796875 0.90625 -0.796875 2.28125l0 4.96875l-1.40625 0l0 -9.265625l1.15625 0l0.171875 1.703125l0.0625 0q0.515625 -0.90625 1.234375 -1.390625q0.734375 -0.484375 1.609375 -0.484375zm18.355896 9.4375l-1.421875 0l-2.5 -8.28125q-0.171875 -0.546875 -0.390625 -1.390625q-0.21875 -0.84375 -0.234375 -1.0q-0.1875 1.109375 -0.59375 2.4375l-2.421875 8.234375l-1.421875 0l-3.28125 -12.375l1.515625 0l1.953125 7.640625q0.40625 1.609375 0.59375 2.921875q0.234375 -1.5625 0.671875 -3.03125l2.21875 -7.53125l1.53125 0l2.328125 7.59375q0.40625 1.3125 0.6875 2.96875q0.15625 -1.203125 0.609375 -2.9375l1.9375 -7.625l1.53125 0l-3.3125 12.375zm8.948303 0.171875q-2.0625 0 -3.25 -1.25q-1.1875 -1.25 -1.1875 -3.484375q0 -2.234375 1.109375 -3.546875q1.109375 -1.328125 2.96875 -1.328125q1.734375 0 2.75 1.140625q1.015625 1.140625 1.015625 3.03125l0 0.890625l-6.390625 0q0.046875 1.625 0.828125 2.46875q0.78125 0.84375 2.203125 0.84375q1.5 0 2.96875 -0.625l0 1.25q-0.75 0.328125 -1.421875 0.46875q-0.65625 0.140625 -1.59375 0.140625zm-0.375 -8.4375q-1.125 0 -1.796875 0.734375q-0.65625 0.71875 -0.765625 2.0l4.84375 0q0 -1.328125 -0.59375 -2.03125q-0.59375 -0.703125 -1.6875 -0.703125zm10.487305 -1.15625q1.828125 0 2.84375 1.25q1.015625 1.25 1.015625 3.53125q0 2.28125 -1.03125 3.546875q-1.015625 1.265625 -2.828125 1.265625q-0.890625 0 -1.640625 -0.328125q-0.75 -0.34375 -1.265625 -1.03125l-0.09375 0l-0.296875 1.1875l-1.015625 0l0 -13.171875l1.40625 0l0 3.203125q0 1.078125 -0.0625 1.9375l0.0625 0q0.984375 -1.390625 2.90625 -1.390625zm-0.203125 1.171875q-1.4375 0 -2.078125 0.828125q-0.625 0.828125 -0.625 2.78125q0 1.953125 0.65625 2.796875q0.65625 0.84375 2.09375 0.84375q1.28125 0 1.921875 -0.9375q0.640625 -0.953125 0.640625 -2.71875q0 -1.8125 -0.640625 -2.703125q-0.640625 -0.890625 -1.96875 -0.890625zm12.49353 5.71875q0 1.296875 -0.96875 2.0q-0.953125 0.703125 -2.703125 0.703125q-1.84375 0 -2.875 -0.59375l0 -1.296875q0.671875 0.34375 1.4375 0.546875q0.765625 0.1875 1.46875 0.1875q1.109375 0 1.703125 -0.34375q0.59375 -0.359375 0.59375 -1.078125q0 -0.546875 -0.484375 -0.921875q-0.46875 -0.390625 -1.828125 -0.921875q-1.296875 -0.484375 -1.84375 -0.84375q-0.53125 -0.359375 -0.8125 -0.8125q-0.265625 -0.453125 -0.265625 -1.09375q0 -1.125 0.921875 -1.78125q0.921875 -0.65625 2.53125 -0.65625q1.5 0 2.9375 0.609375l-0.5 1.140625q-1.40625 -0.578125 -2.53125 -0.578125q-1.0 0 -1.515625 0.3125q-0.5 0.3125 -0.5 0.859375q0 0.375 0.1875 0.640625q0.1875 0.265625 0.609375 0.5q0.421875 0.234375 1.625 0.6875q1.65625 0.59375 2.234375 1.203125q0.578125 0.609375 0.578125 1.53125zm3.6882935 2.53125l-1.40625 0l0 -9.265625l1.40625 0l0 9.265625zm-1.515625 -11.78125q0 -0.484375 0.234375 -0.703125q0.234375 -0.234375 0.59375 -0.234375q0.328125 0 0.578125 0.234375q0.25 0.21875 0.25 0.703125q0 0.46875 -0.25 0.703125q-0.25 0.234375 -0.578125 0.234375q-0.359375 0 -0.59375 -0.234375q-0.234375 -0.234375 -0.234375 -0.703125zm7.4921875 10.796875q0.375 0 0.71875 -0.046875q0.34375 -0.0625 0.546875 -0.125l0 1.078125q-0.21875 0.109375 -0.671875 0.171875q-0.4375 0.078125 -0.796875 0.078125q-2.6875 0 -2.6875 -2.84375l0 -5.515625l-1.328125 0l0 -0.671875l1.328125 -0.578125l0.59375 -1.984375l0.8125 0l0 2.15625l2.6875 0l0 1.078125l-2.6875 0l0 5.46875q0 0.828125 0.390625 1.28125q0.40625 0.453125 1.09375 0.453125zm7.0391846 1.15625q-2.0625 0 -3.25 -1.25q-1.1875 -1.25 -1.1875 -3.484375q0 -2.234375 1.109375 -3.546875q1.109375 -1.328125 2.96875 -1.328125q1.734375 0 2.75 1.140625q1.015625 1.140625 1.015625 3.03125l0 0.890625l-6.390625 0q0.046875 1.625 0.828125 2.46875q0.78125 0.84375 2.203125 0.84375q1.5 0 2.96875 -0.625l0 1.25q-0.75 0.328125 -1.421875 0.46875q-0.65625 0.140625 -1.59375 0.140625zm-0.375 -8.4375q-1.125 0 -1.796875 0.734375q-0.65625 0.71875 -0.765625 2.0l4.84375 0q0 -1.328125 -0.59375 -2.03125q-0.59375 -0.703125 -1.6875 -0.703125z" fill-rule="nonzero"></path><path fill="#ffffff" fill-opacity="0.8495" d="m320.26605 286.37274l0 0c-3.0169678 -14.387085 6.888336 -28.629425 25.512756 -36.683487c18.62439 -8.054047 42.701538 -8.507294 62.01465 -1.1674042l0 0c6.8413086 -8.36525 19.362854 -14.140869 33.77716 -15.5798645c14.414307 -1.4389954 29.02835 1.6276703 39.42163 8.272369l0 0c5.8279114 -7.5844727 17.271088 -12.680267 30.26892 -13.479126c12.997864 -0.7988739 25.710815 2.8122559 33.627686 9.551941l0 0c10.528992 -8.039505 27.280823 -11.424484 43.006897 -8.690216c15.726074 2.7342682 27.601929 11.096695 30.488708 21.46878l0 0c12.89978 2.2832642 23.644958 8.087616 29.459473 15.913391c5.814453 7.825775 6.1278076 16.905273 0.8590698 24.89267l0 0c12.702454 10.727936 15.673889 25.022797 7.805359 37.549988c-7.868469 12.527161 -25.394775 21.404602 -46.03839 23.319427c-0.14550781 11.757202 -10.082275 22.545471 -25.980225 28.206543c-15.897949 5.6610413 -35.274536 5.310913 -50.661255 -0.9154663l0 0c-6.553894 14.081299 -25.000977 24.44217 -47.3714 26.606354c-22.370422 2.1641846 -44.65384 -4.2562866 -57.223022 -16.487549l0 0c-15.407166 6.0288086 -33.8945 7.7655334 -51.291626 4.8183594c-17.397095 -2.9471436 -32.238556 -10.329956 -41.176422 -20.482971l0 0c-15.744171 1.1955566 -30.966644 -4.0976562 -38.11252 -13.252594c-7.145874 -9.154938 -4.6939697 -20.222748 6.1388245 -27.71054l0 0c-14.04422 -5.3638916 -21.21045 -16.00763 -17.76175 -26.38092c3.4487 -10.373291 16.730835 -18.125488 32.920288 -19.214172z" fill-rule="evenodd"></path><path fill="#000000" fill-opacity="0.0" d="m304.7963 332.5223l0 0c6.627533 2.53125 14.283844 3.6794739 21.94101 3.2905273m10.029266 37.673553c3.2928467 -0.25006104 6.5204773 -0.77957153 9.59964 -1.5748596m82.86377 17.2388c-2.315979 -2.2537231 -4.2550354 -4.662018 -5.7841187 -7.1838684m110.38257 -2.9353638l0 0c1.1948853 -2.5672302 1.9690552 -5.2094727 2.3096313 -7.8826294m74.32892 -19.40747c0.15490723 -12.5173645 -10.801331 -23.978394 -28.16272 -29.460236m66.395386 -31.407837c-2.8116455 4.26239 -7.103882 8.043488 -12.540222 11.046875m-17.775696 -51.85405l0 0c0.47912598 1.7212524 0.70080566 3.4683685 0.6621094 5.217148m-74.15643 -17.995193l0 0c-2.6264648 2.0054626 -4.790283 4.2465363 -6.4241943 6.6534424m-57.473022 -2.7271423l0 0c-1.3996582 1.8215485 -2.4448547 3.749054 -3.1114807 5.7381134m-70.08838 1.569519l0 0c4.0866394 1.5531158 7.86734 3.4224548 11.259064 5.5669556m-98.78534 32.28415l0 0c0.41583252 1.9829102 1.0728455 3.9413757 1.9649048 5.8570557" fill-rule="evenodd"></path><path stroke="#000000" stroke-width="1.0" stroke-linejoin="round" stroke-linecap="butt" d="m320.26605 286.37274l0 0c-3.0169678 -14.387085 6.888336 -28.629425 25.512756 -36.683487c18.62439 -8.054047 42.701538 -8.507294 62.01465 -1.1674042l0 0c6.8413086 -8.36525 19.362854 -14.140869 33.77716 -15.5798645c14.414307 -1.4389954 29.02835 1.6276703 39.42163 8.272369l0 0c5.8279114 -7.5844727 17.271088 -12.680267 30.26892 -13.479126c12.997864 -0.7988739 25.710815 2.8122559 33.627686 9.551941l0 0c10.528992 -8.039505 27.280823 -11.424484 43.006897 -8.690216c15.726074 2.7342682 27.601929 11.096695 30.488708 21.46878l0 0c12.89978 2.2832642 23.644958 8.087616 29.459473 15.913391c5.814453 7.825775 6.1278076 16.905273 0.8590698 24.89267l0 0c12.702454 10.727936 15.673889 25.022797 7.805359 37.549988c-7.868469 12.527161 -25.394775 21.404602 -46.03839 23.319427c-0.14550781 11.757202 -10.082275 22.545471 -25.980225 28.206543c-15.897949 5.6610413 -35.274536 5.310913 -50.661255 -0.9154663l0 0c-6.553894 14.081299 -25.000977 24.44217 -47.3714 26.606354c-22.370422 2.1641846 -44.65384 -4.2562866 -57.223022 -16.487549l0 0c-15.407166 6.0288086 -33.8945 7.7655334 -51.291626 4.8183594c-17.397095 -2.9471436 -32.238556 -10.329956 -41.176422 -20.482971l0 0c-15.744171 1.1955566 -30.966644 -4.0976562 -38.11252 -13.252594c-7.145874 -9.154938 -4.6939697 -20.222748 6.1388245 -27.71054l0 0c-14.04422 -5.3638916 -21.21045 -16.00763 -17.76175 -26.38092c3.4487 -10.373291 16.730835 -18.125488 32.920288 -19.214172z" fill-rule="evenodd"></path><path stroke="#000000" stroke-width="1.0" stroke-linejoin="round" stroke-linecap="butt" d="m304.7963 332.5223l0 0c6.627533 2.53125 14.283844 3.6794739 21.94101 3.2905273m10.029266 37.673553c3.2928467 -0.25006104 6.5204773 -0.77957153 9.59964 -1.5748596m82.86377 17.2388c-2.315979 -2.2537231 -4.2550354 -4.662018 -5.7841187 -7.1838684m110.38257 -2.9353638l0 0c1.1948853 -2.5672302 1.9690552 -5.2094727 2.3096313 -7.8826294m74.32892 -19.40747c0.15490723 -12.5173645 -10.801331 -23.978394 -28.16272 -29.460236m66.395386 -31.407837c-2.8116455 4.26239 -7.103882 8.043488 -12.540222 11.046875m-17.775696 -51.85405l0 0c0.47912598 1.7212524 0.70080566 3.4683685 0.6621094 5.217148m-74.15643 -17.995193l0 0c-2.6264648 2.0054626 -4.790283 4.2465363 -6.4241943 6.6534424m-57.473022 -2.7271423l0 0c-1.3996582 1.8215485 -2.4448547 3.749054 -3.1114807 5.7381134m-70.08838 1.569519l0 0c4.0866394 1.5531158 7.86734 3.4224548 11.259064 5.5669556m-98.78534 32.28415l0 0c0.41583252 1.9829102 1.0728455 3.9413757 1.9649048 5.8570557" fill-rule="evenodd"></path><path fill="#000000" d="m419.13187 316.97983l-0.078125 0q-0.96875 1.421875 -2.90625 1.421875q-1.8125 0 -2.828125 -1.234375q-1.015625 -1.25 -1.015625 -3.546875q0 -2.296875 1.015625 -3.5625q1.015625 -1.265625 2.828125 -1.265625q1.890625 0 2.890625 1.359375l0.109375 0l-0.046875 -0.65625l-0.046875 -0.65625l0 -3.78125l1.40625 0l0 13.171875l-1.140625 0l-0.1875 -1.25zm-2.8125 0.25q1.453125 0 2.09375 -0.78125q0.640625 -0.796875 0.640625 -2.53125l0 -0.296875q0 -1.96875 -0.65625 -2.8125q-0.65625 -0.84375 -2.09375 -0.84375q-1.234375 0 -1.890625 0.96875q-0.65625 0.953125 -0.65625 2.703125q0 1.78125 0.65625 2.6875q0.65625 0.90625 1.90625 0.90625zm12.821686 1.0l-0.28125 -1.3125l-0.0625 0q-0.6875 0.859375 -1.390625 1.171875q-0.6875 0.3125 -1.71875 0.3125q-1.375 0 -2.15625 -0.703125q-0.78125 -0.71875 -0.78125 -2.03125q0 -2.8125 4.484375 -2.953125l1.578125 -0.046875l0 -0.578125q0 -1.078125 -0.46875 -1.59375q-0.46875 -0.53125 -1.5 -0.53125q-1.15625 0 -2.625 0.703125l-0.421875 -1.0625q0.671875 -0.375 1.484375 -0.578125q0.828125 -0.21875 1.640625 -0.21875q1.671875 0 2.46875 0.734375q0.796875 0.734375 0.796875 2.359375l0 6.328125l-1.046875 0zm-3.171875 -0.984375q1.3125 0 2.0625 -0.71875q0.75 -0.71875 0.75 -2.015625l0 -0.84375l-1.40625 0.0625q-1.671875 0.0625 -2.421875 0.53125q-0.734375 0.453125 -0.734375 1.421875q0 0.765625 0.453125 1.171875q0.46875 0.390625 1.296875 0.390625zm13.09021 -1.546875q0 1.296875 -0.96875 2.0q-0.953125 0.703125 -2.703125 0.703125q-1.84375 0 -2.875 -0.59375l0 -1.296875q0.671875 0.34375 1.4375 0.546875q0.765625 0.1875 1.46875 0.1875q1.109375 0 1.703125 -0.34375q0.59375 -0.359375 0.59375 -1.078125q0 -0.546875 -0.484375 -0.921875q-0.46875 -0.390625 -1.828125 -0.921875q-1.296875 -0.484375 -1.84375 -0.84375q-0.53125 -0.359375 -0.8125 -0.8125q-0.265625 -0.453125 -0.265625 -1.09375q0 -1.125 0.921875 -1.78125q0.921875 -0.65625 2.53125 -0.65625q1.5 0 2.9375 0.609375l-0.5 1.140625q-1.40625 -0.578125 -2.53125 -0.578125q-1.0 0 -1.515625 0.3125q-0.5 0.3125 -0.5 0.859375q0 0.375 0.1875 0.640625q0.1875 0.265625 0.609375 0.5q0.421875 0.234375 1.625 0.6875q1.65625 0.59375 2.234375 1.203125q0.578125 0.609375 0.578125 1.53125zm7.0020447 2.53125l0 -12.375l1.4375 0l0 12.375l-1.4375 0zm10.956238 0l0 -6.0q0 -1.125 -0.515625 -1.6875q-0.515625 -0.5625 -1.609375 -0.5625q-1.453125 0 -2.140625 0.796875q-0.671875 0.78125 -0.671875 2.59375l0 4.859375l-1.40625 0l0 -9.265625l1.140625 0l0.234375 1.265625l0.0625 0q0.4375 -0.6875 1.21875 -1.0625q0.78125 -0.375 1.734375 -0.375q1.671875 0 2.515625 0.8125q0.84375 0.796875 0.84375 2.578125l0 6.046875l-1.40625 0zm7.2917175 -0.984375q0.375 0 0.71875 -0.046875q0.34375 -0.0625 0.546875 -0.125l0 1.078125q-0.21875 0.109375 -0.671875 0.171875q-0.4375 0.078125 -0.796875 0.078125q-2.6875 0 -2.6875 -2.84375l0 -5.515625l-1.328125 0l0 -0.671875l1.328125 -0.578125l0.59375 -1.984375l0.8125 0l0 2.15625l2.6875 0l0 1.078125l-2.6875 0l0 5.46875q0 0.828125 0.390625 1.28125q0.40625 0.453125 1.09375 0.453125zm7.0391846 1.15625q-2.0625 0 -3.25 -1.25q-1.1875 -1.25 -1.1875 -3.484375q0 -2.234375 1.109375 -3.546875q1.109375 -1.328125 2.96875 -1.328125q1.734375 0 2.75 1.140625q1.015625 1.140625 1.015625 3.03125l0 0.890625l-6.390625 0q0.046875 1.625 0.828125 2.46875q0.78125 0.84375 2.203125 0.84375q1.5 0 2.96875 -0.625l0 1.25q-0.75 0.328125 -1.421875 0.46875q-0.65625 0.140625 -1.59375 0.140625zm-0.375 -8.4375q-1.125 0 -1.796875 0.734375q-0.65625 0.71875 -0.765625 2.0l4.84375 0q0 -1.328125 -0.59375 -2.03125q-0.59375 -0.703125 -1.6875 -0.703125zm10.40921 -1.171875q0.625 0 1.109375 0.09375l-0.1875 1.3125q-0.578125 -0.140625 -1.015625 -0.140625q-1.125 0 -1.9375 0.921875q-0.796875 0.90625 -0.796875 2.28125l0 4.96875l-1.40625 0l0 -9.265625l1.15625 0l0.171875 1.703125l0.0625 0q0.515625 -0.90625 1.234375 -1.390625q0.734375 -0.484375 1.609375 -0.484375zm9.18277 9.4375l0 -6.0q0 -1.125 -0.515625 -1.6875q-0.515625 -0.5625 -1.609375 -0.5625q-1.453125 0 -2.140625 0.796875q-0.671875 0.78125 -0.671875 2.59375l0 4.859375l-1.40625 0l0 -9.265625l1.140625 0l0.234375 1.265625l0.0625 0q0.4375 -0.6875 1.21875 -1.0625q0.78125 -0.375 1.734375 -0.375q1.671875 0 2.515625 0.8125q0.84375 0.796875 0.84375 2.578125l0 6.046875l-1.40625 0zm8.213593 0.171875q-2.0625 0 -3.25 -1.25q-1.1875 -1.25 -1.1875 -3.484375q0 -2.234375 1.109375 -3.546875q1.109375 -1.328125 2.96875 -1.328125q1.734375 0 2.75 1.140625q1.015625 1.140625 1.015625 3.03125l0 0.890625l-6.390625 0q0.046875 1.625 0.828125 2.46875q0.78125 0.84375 2.203125 0.84375q1.5 0 2.96875 -0.625l0 1.25q-0.75 0.328125 -1.421875 0.46875q-0.65625 0.140625 -1.59375 0.140625zm-0.375 -8.4375q-1.125 0 -1.796875 0.734375q-0.65625 0.71875 -0.765625 2.0l4.84375 0q0 -1.328125 -0.59375 -2.03125q-0.59375 -0.703125 -1.6875 -0.703125zm9.174835 7.28125q0.375 0 0.71875 -0.046875q0.34375 -0.0625 0.546875 -0.125l0 1.078125q-0.21875 0.109375 -0.671875 0.171875q-0.4375 0.078125 -0.796875 0.078125q-2.6875 0 -2.6875 -2.84375l0 -5.515625l-1.328125 0l0 -0.671875l1.328125 -0.578125l0.59375 -1.984375l0.8125 0l0 2.15625l2.6875 0l0 1.078125l-2.6875 0l0 5.46875q0 0.828125 0.390625 1.28125q0.40625 0.453125 1.09375 0.453125z" fill-rule="nonzero"></path><path fill="#000000" fill-opacity="0.0" d="m14.947507 231.10498l247.46457 0l0 170.23624l-247.46457 0z" fill-rule="evenodd"></path><path stroke="#000000" stroke-width="1.0" stroke-linejoin="round" stroke-linecap="butt" d="m14.947507 231.10498l247.46457 0l0 170.23624l-247.46457 0z" fill-rule="evenodd"></path><path fill="#000000" d="m68.07924 287.56622q0 1.640625 -1.1875 2.5625q-1.1875 0.90625 -3.2187538 0.90625q-2.203125 0 -3.390625 -0.5625l0 -1.390625q0.765625 0.3125 1.65625 0.5q0.90625 0.1875 1.78125 0.1875q1.4375038 0 2.1562538 -0.546875q0.734375 -0.546875 0.734375 -1.515625q0 -0.640625 -0.265625 -1.046875q-0.25 -0.421875 -0.859375 -0.765625q-0.59375 -0.34375 -1.8281288 -0.78125q-1.734375 -0.625 -2.46875 -1.46875q-0.734375 -0.84375 -0.734375 -2.203125q0 -1.4375 1.0625 -2.28125q1.078125 -0.84375 2.8437538 -0.84375q1.84375 0 3.40625 0.671875l-0.453125 1.25q-1.53125 -0.640625 -2.984375 -0.640625q-1.1406288 0 -1.7812538 0.5q-0.640625 0.484375 -0.640625 1.359375q0 0.640625 0.234375 1.0625q0.234375 0.40625 0.796875 0.75q0.5625 0.328125 1.7187538 0.75q1.953125 0.6875 2.6875 1.484375q0.734375 0.796875 0.734375 2.0625zm6.2289124 3.46875q-2.0625 0 -3.25 -1.25q-1.1875 -1.25 -1.1875 -3.484375q0 -2.234375 1.109375 -3.546875q1.109375 -1.328125 2.96875 -1.328125q1.734375 0 2.75 1.140625q1.015625 1.140625 1.015625 3.03125l0 0.890625l-6.390625 0q0.046875 1.625 0.828125 2.46875q0.78125 0.84375 2.203125 0.84375q1.5 0 2.96875 -0.625l0 1.25q-0.75 0.328125 -1.421875 0.46875q-0.65625 0.140625 -1.59375 0.140625zm-0.375 -8.4375q-1.125 0 -1.796875 0.734375q-0.65625 0.71875 -0.765625 2.0l4.84375 0q0 -1.328125 -0.59375 -2.03125q-0.59375 -0.703125 -1.6875 -0.703125zm10.409195 -1.171875q0.625 0 1.109375 0.09375l-0.1875 1.3125q-0.578125 -0.140625 -1.015625 -0.140625q-1.125 0 -1.9375 0.921875q-0.796875 0.90625 -0.796875 2.28125l0 4.96875l-1.40625 0l0 -9.265625l1.15625 0l0.171875 1.703125l0.0625 0q0.515625 -0.90625 1.234375 -1.390625q0.734375 -0.484375 1.609375 -0.484375zm4.87027 9.4375l-3.515625 -9.265625l1.5 0l2.0 5.484375q0.6875 1.9375 0.796875 2.515625l0.0625 0q0.09375 -0.453125 0.59375 -1.859375q0.5 -1.40625 2.21875 -6.140625l1.515625 0l-3.53125 9.265625l-1.640625 0zm10.5716095 0.171875q-2.0625 0 -3.25 -1.25q-1.1875 -1.25 -1.1875 -3.484375q0 -2.234375 1.109375 -3.546875q1.109375 -1.328125 2.96875 -1.328125q1.734375 0 2.75 1.140625q1.015625 1.140625 1.015625 3.03125l0 0.890625l-6.390625 0q0.046875 1.625 0.828125 2.46875q0.78125 0.84375 2.203125 0.84375q1.5 0 2.96875 -0.625l0 1.25q-0.75 0.328125 -1.421875 0.46875q-0.65625 0.140625 -1.59375 0.140625zm-0.375 -8.4375q-1.125 0 -1.796875 0.734375q-0.65625 0.71875 -0.765625 2.0l4.84375 0q0 -1.328125 -0.59375 -2.03125q-0.59375 -0.703125 -1.6875 -0.703125zm10.409195 -1.171875q0.625 0 1.109375 0.09375l-0.1875 1.3125q-0.578125 -0.140625 -1.015625 -0.140625q-1.125 0 -1.9375 0.921875q-0.796875 0.90625 -0.796875 2.28125l0 4.96875l-1.40625 0l0 -9.265625l1.15625 0l0.171875 1.703125l0.0625 0q0.515625 -0.90625 1.234375 -1.390625q0.734375 -0.484375 1.609375 -0.484375zm11.262146 9.609375q-2.0625 0 -3.25 -1.25q-1.1875 -1.25 -1.1875 -3.484375q0 -2.234375 1.109375 -3.546875q1.109375 -1.328125 2.96875 -1.328125q1.734375 0 2.75 1.140625q1.015625 1.140625 1.015625 3.03125l0 0.890625l-6.390625 0q0.046875 1.625 0.828125 2.46875q0.78125 0.84375 2.203125 0.84375q1.5 0 2.96875 -0.625l0 1.25q-0.75 0.328125 -1.421875 0.46875q-0.65625 0.140625 -1.59375 0.140625zm-0.375 -8.4375q-1.125 0 -1.796875 0.734375q-0.65625 0.71875 -0.765625 2.0l4.84375 0q0 -1.328125 -0.59375 -2.03125q-0.59375 -0.703125 -1.6875 -0.703125zm7.58107 8.265625l-1.40625 0l0 -9.265625l1.40625 0l0 9.265625zm-1.515625 -11.78125q0 -0.484375 0.234375 -0.703125q0.234375 -0.234375 0.59375 -0.234375q0.328125 0 0.578125 0.234375q0.25 0.21875 0.25 0.703125q0 0.46875 -0.25 0.703125q-0.25 0.234375 -0.578125 0.234375q-0.359375 0 -0.59375 -0.234375q-0.234375 -0.234375 -0.234375 -0.703125zm10.835922 11.78125l0 -6.0q0 -1.125 -0.515625 -1.6875q-0.515625 -0.5625 -1.609375 -0.5625q-1.453125 0 -2.140625 0.796875q-0.671875 0.78125 -0.671875 2.59375l0 4.859375l-1.40625 0l0 -9.265625l1.140625 0l0.234375 1.265625l0.0625 0q0.4375 -0.6875 1.21875 -1.0625q0.78125 -0.375 1.734375 -0.375q1.671875 0 2.515625 0.8125q0.84375 0.796875 0.84375 2.578125l0 6.046875l-1.40625 0zm8.213608 0.171875q-2.0625 0 -3.25 -1.25q-1.1875 -1.25 -1.1875 -3.484375q0 -2.234375 1.109375 -3.546875q1.109375 -1.328125 2.96875 -1.328125q1.734375 0 2.75 1.140625q1.015625 1.140625 1.015625 3.03125l0 0.890625l-6.390625 0q0.046875 1.625 0.828125 2.46875q0.78125 0.84375 2.203125 0.84375q1.5 0 2.96875 -0.625l0 1.25q-0.75 0.328125 -1.421875 0.46875q-0.65625 0.140625 -1.59375 0.140625zm-0.375 -8.4375q-1.125 0 -1.796875 0.734375q-0.65625 0.71875 -0.765625 2.0l4.84375 0q0 -1.328125 -0.59375 -2.03125q-0.59375 -0.703125 -1.6875 -0.703125zm12.159195 5.734375q0 1.296875 -0.96875 2.0q-0.953125 0.703125 -2.703125 0.703125q-1.84375 0 -2.875 -0.59375l0 -1.296875q0.671875 0.34375 1.4375 0.546875q0.765625 0.1875 1.46875 0.1875q1.109375 0 1.703125 -0.34375q0.59375 -0.359375 0.59375 -1.078125q0 -0.546875 -0.484375 -0.921875q-0.46875 -0.390625 -1.828125 -0.921875q-1.296875 -0.484375 -1.84375 -0.84375q-0.53125 -0.359375 -0.8125 -0.8125q-0.265625 -0.453125 -0.265625 -1.09375q0 -1.125 0.921875 -1.78125q0.921875 -0.65625 2.53125 -0.65625q1.5 0 2.9375 0.609375l-0.5 1.140625q-1.40625 -0.578125 -2.53125 -0.578125q-1.0 0 -1.515625 0.3125q-0.5 0.3125 -0.5 0.859375q0 0.375 0.1875 0.640625q0.1875 0.265625 0.609375 0.5q0.421875 0.234375 1.625 0.6875q1.65625 0.59375 2.234375 1.203125q0.578125 0.609375 0.578125 1.53125zm12.298904 -8.734375q-2.046875 0 -3.234375 1.359375q-1.171875 1.359375 -1.171875 3.71875q0 2.4375 1.140625 3.765625q1.140625 1.3125 3.25 1.3125q1.296875 0 2.953125 -0.46875l0 1.265625q-1.296875 0.484375 -3.171875 0.484375q-2.734375 0 -4.21875 -1.65625q-1.484375 -1.65625 -1.484375 -4.71875q0 -1.90625 0.703125 -3.34375q0.71875 -1.4375 2.0625 -2.21875q1.359375 -0.78125 3.1875 -0.78125q1.9375 0 3.40625 0.703125l-0.609375 1.234375q-1.40625 -0.65625 -2.8125 -0.65625zm13.43161 6.625q0 2.265625 -1.15625 3.546875q-1.140625 1.265625 -3.15625 1.265625q-1.234375 0 -2.203125 -0.578125q-0.96875 -0.59375 -1.5 -1.6875q-0.515625 -1.09375 -0.515625 -2.546875q0 -2.265625 1.125 -3.53125q1.140625 -1.265625 3.15625 -1.265625q1.953125 0 3.09375 1.296875q1.15625 1.28125 1.15625 3.5zm-7.078125 0q0 1.765625 0.703125 2.703125q0.71875 0.9375 2.109375 0.9375q1.375 0 2.078125 -0.921875q0.71875 -0.9375 0.71875 -2.71875q0 -1.765625 -0.71875 -2.6875q-0.703125 -0.921875 -2.09375 -0.921875q-1.390625 0 -2.09375 0.90625q-0.703125 0.90625 -0.703125 2.703125zm17.544388 0q0 2.265625 -1.15625 3.546875q-1.140625 1.265625 -3.15625 1.265625q-1.234375 0 -2.203125 -0.578125q-0.96875 -0.59375 -1.5 -1.6875q-0.515625 -1.09375 -0.515625 -2.546875q0 -2.265625 1.125 -3.53125q1.140625 -1.265625 3.15625 -1.265625q1.953125 0 3.09375 1.296875q1.15625 1.28125 1.15625 3.5zm-7.078125 0q0 1.765625 0.703125 2.703125q0.71875 0.9375 2.109375 0.9375q1.375 0 2.078125 -0.921875q0.71875 -0.9375 0.71875 -2.71875q0 -1.765625 -0.71875 -2.6875q-0.703125 -0.921875 -2.09375 -0.921875q-1.390625 0 -2.09375 0.90625q-0.703125 0.90625 -0.703125 2.703125zm10.919388 -0.109375q0.359375 -0.515625 1.109375 -1.34375l3.0 -3.171875l1.65625 0l-3.75 3.9375l4.015625 5.328125l-1.703125 0l-3.265625 -4.375l-1.0625 0.90625l0 3.46875l-1.390625 0l0 -13.171875l1.390625 0l0 6.984375q0 0.46875 -0.0625 1.4375l0.0625 0zm9.111206 4.75l-1.40625 0l0 -9.265625l1.40625 0l0 9.265625zm-1.515625 -11.78125q0 -0.484375 0.234375 -0.703125q0.234375 -0.234375 0.59375 -0.234375q0.328125 0 0.578125 0.234375q0.25 0.21875 0.25 0.703125q0 0.46875 -0.25 0.703125q-0.25 0.234375 -0.578125 0.234375q-0.359375 0 -0.59375 -0.234375q-0.234375 -0.234375 -0.234375 -0.703125zm8.414047 11.953125q-2.0625 0 -3.25 -1.25q-1.1875 -1.25 -1.1875 -3.484375q0 -2.234375 1.109375 -3.546875q1.109375 -1.328125 2.96875 -1.328125q1.734375 0 2.75 1.140625q1.015625 1.140625 1.015625 3.03125l0 0.890625l-6.390625 0q0.046875 1.625 0.828125 2.46875q0.78125 0.84375 2.203125 0.84375q1.5 0 2.96875 -0.625l0 1.25q-0.75 0.328125 -1.421875 0.46875q-0.65625 0.140625 -1.59375 0.140625zm-0.375 -8.4375q-1.125 0 -1.796875 0.734375q-0.65625 0.71875 -0.765625 2.0l4.84375 0q0 -1.328125 -0.59375 -2.03125q-0.59375 -0.703125 -1.6875 -0.703125z" fill-rule="nonzero"></path><path fill="#000000" d="m38.990772 300.59747q-2.046875 0 -3.234375 1.359375q-1.171875 1.359375 -1.171875 3.71875q0 2.4375 1.140625 3.765625q1.140625 1.3125 3.25 1.3125q1.296875 0 2.953125 -0.46875l0 1.265625q-1.296875 0.484375 -3.171875 0.484375q-2.734375 0 -4.21875 -1.65625q-1.484375 -1.65625 -1.484375 -4.71875q0 -1.90625 0.703125 -3.34375q0.71875 -1.4375 2.0625 -2.21875q1.359375 -0.78125 3.1875 -0.78125q1.9375 0 3.40625 0.703125l-0.609375 1.234375q-1.40625 -0.65625 -2.8125 -0.65625zm13.43161 6.625q0 2.265625 -1.15625 3.546875q-1.140625 1.265625 -3.15625 1.265625q-1.234375 0 -2.203125 -0.578125q-0.96875 -0.59375 -1.5 -1.6875q-0.515625 -1.09375 -0.515625 -2.546875q0 -2.265625 1.125 -3.53125q1.140625 -1.265625 3.15625 -1.265625q1.953125 0 3.09375 1.296875q1.15625 1.28125 1.15625 3.5zm-7.078125 0q0 1.765625 0.703125 2.703125q0.71875 0.9375 2.109375 0.9375q1.375 0 2.078125 -0.921875q0.71875 -0.9375 0.71875 -2.71875q0 -1.765625 -0.71875 -2.6875q-0.703125 -0.921875 -2.09375 -0.921875q-1.390625 0 -2.09375 0.90625q-0.703125 0.90625 -0.703125 2.703125zm15.872513 4.640625l0 -6.0q0 -1.125 -0.515625 -1.6875q-0.515625 -0.5625 -1.609375 -0.5625q-1.453125 0 -2.140625 0.796875q-0.671875 0.78125 -0.671875 2.59375l0 4.859375l-1.40625 0l0 -9.265625l1.140625 0l0.234375 1.265625l0.0625 0q0.4375 -0.6875 1.21875 -1.0625q0.78125 -0.375 1.734375 -0.375q1.671875 0 2.515625 0.8125q0.84375 0.796875 0.84375 2.578125l0 6.046875l-1.40625 0zm10.276112 -2.53125q0 1.296875 -0.96875 2.0q-0.953125 0.703125 -2.703125 0.703125q-1.84375 0 -2.875 -0.59375l0 -1.296875q0.671875 0.34375 1.4375 0.546875q0.765625 0.1875 1.46875 0.1875q1.109375 0 1.703125 -0.34375q0.59375 -0.359375 0.59375 -1.078125q0 -0.546875 -0.484375 -0.921875q-0.46875 -0.390625 -1.828125 -0.921875q-1.296875 -0.484375 -1.84375 -0.84375q-0.53125 -0.359375 -0.8125 -0.8125q-0.265625 -0.453125 -0.265625 -1.09375q0 -1.125 0.921875 -1.78125q0.921875 -0.65625 2.53125 -0.65625q1.5 0 2.9375 0.609375l-0.5 1.140625q-1.40625 -0.578125 -2.53125 -0.578125q-1.0 0 -1.515625 0.3125q-0.5 0.3125 -0.5 0.859375q0 0.375 0.1875 0.640625q0.1875 0.265625 0.609375 0.5q0.421875 0.234375 1.625 0.6875q1.65625 0.59375 2.234375 1.203125q0.578125 0.609375 0.578125 1.53125zm6.203903 2.703125q-2.0625 0 -3.25 -1.25q-1.1875 -1.25 -1.1875 -3.484375q0 -2.234375 1.109375 -3.546875q1.109375 -1.328125 2.96875 -1.328125q1.734375 0 2.75 1.140625q1.015625 1.140625 1.015625 3.03125l0 0.890625l-6.390625 0q0.046875 1.625 0.828125 2.46875q0.78125 0.84375 2.203125 0.84375q1.5 0 2.96875 -0.625l0 1.25q-0.75 0.328125 -1.421875 0.46875q-0.65625 0.140625 -1.59375 0.140625zm-0.375 -8.4375q-1.125 0 -1.796875 0.734375q-0.65625 0.71875 -0.765625 2.0l4.84375 0q0 -1.328125 -0.59375 -2.03125q-0.59375 -0.703125 -1.6875 -0.703125zm12.51857 8.265625l0 -6.0q0 -1.125 -0.515625 -1.6875q-0.515625 -0.5625 -1.609375 -0.5625q-1.453125 0 -2.140625 0.796875q-0.671875 0.78125 -0.671875 2.59375l0 4.859375l-1.40625 0l0 -9.265625l1.140625 0l0.234375 1.265625l0.0625 0q0.4375 -0.6875 1.21875 -1.0625q0.78125 -0.375 1.734375 -0.375q1.671875 0 2.515625 0.8125q0.84375 0.796875 0.84375 2.578125l0 6.046875l-1.40625 0zm7.291733 -0.984375q0.375 0 0.71875 -0.046875q0.34375 -0.0625 0.546875 -0.125l0 1.078125q-0.21875 0.109375 -0.671875 0.171875q-0.4375 0.078125 -0.796875 0.078125q-2.6875 0 -2.6875 -2.84375l0 -5.515625l-1.328125 0l0 -0.671875l1.328125 -0.578125l0.59375 -1.984375l0.8125 0l0 2.15625l2.6875 0l0 1.078125l-2.6875 0l0 5.46875q0 0.828125 0.390625 1.28125q0.40625 0.453125 1.09375 0.453125zm15.681061 -7.78125q0 1.875 -1.28125 2.890625q-1.28125 1.015625 -3.671875 1.015625l-1.453125 0l0 4.859375l-1.4375 0l0 -12.375l3.203125 0q4.640625 0 4.640625 3.609375zm-6.40625 2.671875l1.296875 0q1.90625 0 2.765625 -0.609375q0.859375 -0.625 0.859375 -2.0q0 -1.21875 -0.8125 -1.8125q-0.796875 -0.609375 -2.5 -0.609375l-1.609375 0l0 5.03125zm13.010544 -3.34375q0.625 0 1.109375 0.09375l-0.1875 1.3125q-0.578125 -0.140625 -1.015625 -0.140625q-1.125 0 -1.9375 0.921875q-0.796875 0.90625 -0.796875 2.28125l0 4.96875l-1.40625 0l0 -9.265625l1.15625 0l0.171875 1.703125l0.0625 0q0.515625 -0.90625 1.234375 -1.390625q0.734375 -0.484375 1.609375 -0.484375zm10.854637 4.796875q0 2.265625 -1.15625 3.546875q-1.1406174 1.265625 -3.1562424 1.265625q-1.234375 0 -2.203125 -0.578125q-0.96875 -0.59375 -1.5 -1.6875q-0.515625 -1.09375 -0.515625 -2.546875q0 -2.265625 1.125 -3.53125q1.140625 -1.265625 3.15625 -1.265625q1.953125 0 3.0937424 1.296875q1.15625 1.28125 1.15625 3.5zm-7.0781174 0q0 1.765625 0.703125 2.703125q0.71875 0.9375 2.109375 0.9375q1.375 0 2.0781174 -0.921875q0.71875 -0.9375 0.71875 -2.71875q0 -1.765625 -0.71875 -2.6875q-0.7031174 -0.921875 -2.0937424 -0.921875q-1.390625 0 -2.09375 0.90625q-0.703125 0.90625 -0.703125 2.703125zm11.560005 4.640625l-3.515625 -9.265625l1.5 0l2.0 5.484375q0.6875 1.9375 0.796875 2.515625l0.0625 0q0.09375 -0.453125 0.59375 -1.859375q0.5 -1.40625 2.21875 -6.140625l1.515625 0l-3.53125 9.265625l-1.640625 0zm8.0559845 0l-1.40625 0l0 -9.265625l1.40625 0l0 9.265625zm-1.515625 -11.78125q0 -0.484375 0.234375 -0.703125q0.234375 -0.234375 0.59375 -0.234375q0.328125 0 0.578125 0.234375q0.25001526 0.21875 0.25001526 0.703125q0 0.46875 -0.25001526 0.703125q-0.25 0.234375 -0.578125 0.234375q-0.359375 0 -0.59375 -0.234375q-0.234375 -0.234375 -0.234375 -0.703125zm10.804672 10.53125l-0.078125 0q-0.96875 1.421875 -2.90625 1.421875q-1.8125 0 -2.828125 -1.234375q-1.015625 -1.25 -1.015625 -3.546875q0 -2.296875 1.015625 -3.5625q1.015625 -1.265625 2.828125 -1.265625q1.890625 0 2.890625 1.359375l0.109375 0l-0.046875 -0.65625l-0.046875 -0.65625l0 -3.78125l1.40625 0l0 13.171875l-1.140625 0l-0.1875 -1.25zm-2.8125 0.25q1.453125 0 2.09375 -0.78125q0.640625 -0.796875 0.640625 -2.53125l0 -0.296875q0 -1.96875 -0.65625 -2.8125q-0.65625 -0.84375 -2.09375 -0.84375q-1.234375 0 -1.890625 0.96875q-0.65625 0.953125 -0.65625 2.703125q0 1.78125 0.65625 2.6875q0.65625 0.90625 1.90625 0.90625zm11.040436 1.171875q-2.0625 0 -3.25 -1.25q-1.1875 -1.25 -1.1875 -3.484375q0 -2.234375 1.109375 -3.546875q1.109375 -1.328125 2.96875 -1.328125q1.734375 0 2.75 1.140625q1.015625 1.140625 1.015625 3.03125l0 0.890625l-6.390625 0q0.046875 1.625 0.828125 2.46875q0.78125 0.84375 2.203125 0.84375q1.5 0 2.96875 -0.625l0 1.25q-0.75 0.328125 -1.421875 0.46875q-0.65625 0.140625 -1.59375 0.140625zm-0.375 -8.4375q-1.125 0 -1.796875 0.734375q-0.65625 0.71875 -0.765625 2.0l4.84375 0q0 -1.328125 -0.59375 -2.03125q-0.59375 -0.703125 -1.6875 -0.703125zm10.40921 -1.171875q0.625 0 1.109375 0.09375l-0.1875 1.3125q-0.578125 -0.140625 -1.015625 -0.140625q-1.125 0 -1.9375 0.921875q-0.796875 0.90625 -0.796875 2.28125l0 4.96875l-1.40625 0l0 -9.265625l1.15625 0l0.171875 1.703125l0.0625 0q0.515625 -0.90625 1.234375 -1.390625q0.734375 -0.484375 1.609375 -0.484375zm8.823395 6.90625q0 1.296875 -0.96875 2.0q-0.953125 0.703125 -2.703125 0.703125q-1.84375 0 -2.875 -0.59375l0 -1.296875q0.671875 0.34375 1.4375 0.546875q0.765625 0.1875 1.46875 0.1875q1.109375 0 1.703125 -0.34375q0.59375 -0.359375 0.59375 -1.078125q0 -0.546875 -0.484375 -0.921875q-0.46875 -0.390625 -1.828125 -0.921875q-1.296875 -0.484375 -1.84375 -0.84375q-0.53125 -0.359375 -0.8125 -0.8125q-0.265625 -0.453125 -0.265625 -1.09375q0 -1.125 0.921875 -1.78125q0.921875 -0.65625 2.53125 -0.65625q1.5 0 2.9375 0.609375l-0.5 1.140625q-1.40625 -0.578125 -2.53125 -0.578125q-1.0 0 -1.515625 0.3125q-0.5 0.3125 -0.5 0.859375q0 0.375 0.1875 0.640625q0.1875 0.265625 0.609375 0.5q0.421875 0.234375 1.625 0.6875q1.65625 0.59375 2.234375 1.203125q0.578125 0.609375 0.578125 1.53125zm3.766388 0.515625l0.125 0.203125q-0.21875 0.84375 -0.640625 1.953125q-0.40625 1.125 -0.859375 2.09375l-1.0625 0q0.234375 -0.875 0.5 -2.171875q0.28125 -1.296875 0.390625 -2.078125l1.546875 0zm13.576813 0.765625l-0.078125 0q-0.96875 1.421875 -2.90625 1.421875q-1.8125 0 -2.828125 -1.234375q-1.015625 -1.25 -1.015625 -3.546875q0 -2.296875 1.015625 -3.5625q1.015625 -1.265625 2.828125 -1.265625q1.890625 0 2.890625 1.359375l0.109375 0l-0.046875 -0.65625l-0.046875 -0.65625l0 -3.78125l1.40625 0l0 13.171875l-1.140625 0l-0.1875 -1.25zm-2.8125 0.25q1.453125 0 2.09375 -0.78125q0.640625 -0.796875 0.640625 -2.53125l0 -0.296875q0 -1.96875 -0.65625 -2.8125q-0.65625 -0.84375 -2.09375 -0.84375q-1.234375 0 -1.890625 0.96875q-0.65625 0.953125 -0.65625 2.703125q0 1.78125 0.65625 2.6875q0.65625 0.90625 1.90625 0.90625zm11.040436 1.171875q-2.0625 0 -3.25 -1.25q-1.1875 -1.25 -1.1875 -3.484375q0 -2.234375 1.109375 -3.546875q1.109375 -1.328125 2.96875 -1.328125q1.734375 0 2.75 1.140625q1.015625 1.140625 1.015625 3.03125l0 0.890625l-6.390625 0q0.046875 1.625 0.828125 2.46875q0.78125 0.84375 2.203125 0.84375q1.5 0 2.96875 -0.625l0 1.25q-0.75 0.328125 -1.421875 0.46875q-0.65625 0.140625 -1.59375 0.140625zm-0.375 -8.4375q-1.125 0 -1.796875 0.734375q-0.65625 0.71875 -0.765625 2.0l4.84375 0q0 -1.328125 -0.59375 -2.03125q-0.59375 -0.703125 -1.6875 -0.703125zm10.40918 -1.171875q0.625 0 1.109375 0.09375l-0.1875 1.3125q-0.578125 -0.140625 -1.015625 -0.140625q-1.125 0 -1.9375 0.921875q-0.796875 0.90625 -0.796875 2.28125l0 4.96875l-1.40625 0l0 -9.265625l1.15625 0l0.171875 1.703125l0.0625 0q0.515625 -0.90625 1.234375 -1.390625q0.734375 -0.484375 1.609375 -0.484375zm13.652771 8.1875l-0.078125 0q-0.96875 1.421875 -2.90625 1.421875q-1.8125 0 -2.828125 -1.234375q-1.015625 -1.25 -1.015625 -3.546875q0 -2.296875 1.015625 -3.5625q1.015625 -1.265625 2.828125 -1.265625q1.890625 0 2.890625 1.359375l0.109375 0l-0.046875 -0.65625l-0.046875 -0.65625l0 -3.78125l1.40625 0l0 13.171875l-1.140625 0l-0.1875 -1.25zm-2.8125 0.25q1.453125 0 2.09375 -0.78125q0.640625 -0.796875 0.640625 -2.53125l0 -0.296875q0 -1.96875 -0.65625 -2.8125q-0.65625 -0.84375 -2.09375 -0.84375q-1.234375 0 -1.890625 0.96875q-0.65625 0.953125 -0.65625 2.703125q0 1.78125 0.65625 2.6875q0.65625 0.90625 1.90625 0.90625zm8.524811 1.0l-1.40625 0l0 -9.265625l1.40625 0l0 9.265625zm-1.515625 -11.78125q0 -0.484375 0.234375 -0.703125q0.234375 -0.234375 0.59375 -0.234375q0.328125 0 0.578125 0.234375q0.25 0.21875 0.25 0.703125q0 0.46875 -0.25 0.703125q-0.25 0.234375 -0.578125 0.234375q-0.359375 0 -0.59375 -0.234375q-0.234375 -0.234375 -0.234375 -0.703125zm8.4140625 11.953125q-2.0625 0 -3.25 -1.25q-1.1875 -1.25 -1.1875 -3.484375q0 -2.234375 1.109375 -3.546875q1.109375 -1.328125 2.96875 -1.328125q1.734375 0 2.75 1.140625q1.015625 1.140625 1.015625 3.03125l0 0.890625l-6.390625 0q0.046875 1.625 0.828125 2.46875q0.78125 0.84375 2.203125 0.84375q1.5 0 2.96875 -0.625l0 1.25q-0.75 0.328125 -1.421875 0.46875q-0.65625 0.140625 -1.59375 0.140625zm-0.375 -8.4375q-1.125 0 -1.796875 0.734375q-0.65625 0.71875 -0.765625 2.0l4.84375 0q0 -1.328125 -0.59375 -2.03125q-0.59375 -0.703125 -1.6875 -0.703125z" fill-rule="nonzero"></path><path fill="#000000" d="m71.09218 332.8631l-1.421875 0l-2.5 -8.28125q-0.171875 -0.546875 -0.390625 -1.390625q-0.21875 -0.84375 -0.234375 -1.0q-0.1875 1.109375 -0.59375 2.4375l-2.4218788 8.234375l-1.421875 0l-3.28125 -12.375l1.515625 0l1.953125 7.640625q0.40625 1.609375 0.59375 2.921875q0.234375 -1.5625 0.671875 -3.03125l2.2187538 -7.53125l1.53125 0l2.328125 7.59375q0.40625 1.3125 0.6875 2.96875q0.15625 -1.203125 0.609375 -2.9375l1.9375 -7.625l1.53125 0l-3.3125 12.375zm8.948303 0.171875q-2.0625 0 -3.25 -1.25q-1.1875 -1.25 -1.1875 -3.484375q0 -2.234375 1.109375 -3.546875q1.109375 -1.328125 2.96875 -1.328125q1.734375 0 2.75 1.140625q1.015625 1.140625 1.015625 3.03125l0 0.890625l-6.390625 0q0.046875 1.625 0.828125 2.46875q0.78125 0.84375 2.203125 0.84375q1.5 0 2.96875 -0.625l0 1.25q-0.75 0.328125 -1.421875 0.46875q-0.65625 0.140625 -1.59375 0.140625zm-0.375 -8.4375q-1.125 0 -1.796875 0.734375q-0.65625 0.71875 -0.765625 2.0l4.84375 0q0 -1.328125 -0.59375 -2.03125q-0.59375 -0.703125 -1.6875 -0.703125zm10.48732 -1.15625q1.828125 0 2.84375 1.25q1.015625 1.25 1.015625 3.53125q0 2.28125 -1.03125 3.546875q-1.015625 1.265625 -2.828125 1.265625q-0.890625 0 -1.640625 -0.328125q-0.75 -0.34375 -1.265625 -1.03125l-0.09375 0l-0.296875 1.1875l-1.015625 0l0 -13.171875l1.40625 0l0 3.203125q0 1.078125 -0.0625 1.9375l0.0625 0q0.984375 -1.390625 2.90625 -1.390625zm-0.203125 1.171875q-1.4375 0 -2.078125 0.828125q-0.625 0.828125 -0.625 2.78125q0 1.953125 0.65625 2.796875q0.65625 0.84375 2.09375 0.84375q1.28125 0 1.921875 -0.9375q0.640625 -0.953125 0.640625 -2.71875q0 -1.8125 -0.640625 -2.703125q-0.640625 -0.890625 -1.96875 -0.890625zm12.493561 5.71875q0 1.296875 -0.96875 2.0q-0.953125 0.703125 -2.703125 0.703125q-1.84375 0 -2.875 -0.59375l0 -1.296875q0.671875 0.34375 1.4375 0.546875q0.765625 0.1875 1.46875 0.1875q1.109375 0 1.703125 -0.34375q0.59375 -0.359375 0.59375 -1.078125q0 -0.546875 -0.484375 -0.921875q-0.46875 -0.390625 -1.828125 -0.921875q-1.296875 -0.484375 -1.84375 -0.84375q-0.53125 -0.359375 -0.8125 -0.8125q-0.265625 -0.453125 -0.265625 -1.09375q0 -1.125 0.921875 -1.78125q0.921875 -0.65625 2.53125 -0.65625q1.5 0 2.9375 0.609375l-0.5 1.140625q-1.40625 -0.578125 -2.53125 -0.578125q-1.0 0 -1.515625 0.3125q-0.5 0.3125 -0.5 0.859375q0 0.375 0.1875 0.640625q0.1875 0.265625 0.609375 0.5q0.421875 0.234375 1.625 0.6875q1.65625 0.59375 2.234375 1.203125q0.578125 0.609375 0.578125 1.53125zm3.6882782 2.53125l-1.40625 0l0 -9.265625l1.40625 0l0 9.265625zm-1.515625 -11.78125q0 -0.484375 0.234375 -0.703125q0.234375 -0.234375 0.59375 -0.234375q0.328125 0 0.578125 0.234375q0.25 0.21875 0.25 0.703125q0 0.46875 -0.25 0.703125q-0.25 0.234375 -0.578125 0.234375q-0.359375 0 -0.59375 -0.234375q-0.234375 -0.234375 -0.234375 -0.703125zm7.4921722 10.796875q0.375 0 0.71875 -0.046875q0.34375 -0.0625 0.546875 -0.125l0 1.078125q-0.21875 0.109375 -0.671875 0.171875q-0.4375 0.078125 -0.796875 0.078125q-2.6875 0 -2.6875 -2.84375l0 -5.515625l-1.328125 0l0 -0.671875l1.328125 -0.578125l0.59375 -1.984375l0.8125 0l0 2.15625l2.6875 0l0 1.078125l-2.6875 0l0 5.46875q0 0.828125 0.390625 1.28125q0.40625 0.453125 1.09375 0.453125zm7.0391846 1.15625q-2.0625 0 -3.25 -1.25q-1.1875 -1.25 -1.1875 -3.484375q0 -2.234375 1.109375 -3.546875q1.109375 -1.328125 2.96875 -1.328125q1.734375 0 2.75 1.140625q1.015625 1.140625 1.015625 3.03125l0 0.890625l-6.390625 0q0.046875 1.625 0.828125 2.46875q0.78125 0.84375 2.203125 0.84375q1.5 0 2.96875 -0.625l0 1.25q-0.75 0.328125 -1.421875 0.46875q-0.65625 0.140625 -1.59375 0.140625zm-0.375 -8.4375q-1.125 0 -1.796875 0.734375q-0.65625 0.71875 -0.765625 2.0l4.84375 0q0 -1.328125 -0.59375 -2.03125q-0.59375 -0.703125 -1.6875 -0.703125zm14.910446 -1.171875q0.625 0 1.109375 0.09375l-0.1875 1.3125q-0.578125 -0.140625 -1.015625 -0.140625q-1.125 0 -1.9375 0.921875q-0.796875 0.90625 -0.796875 2.28125l0 4.96875l-1.40625 0l0 -9.265625l1.15625 0l0.171875 1.703125l0.0625 0q0.515625 -0.90625 1.234375 -1.390625q0.734375 -0.484375 1.609375 -0.484375zm6.760895 9.609375q-2.0625 0 -3.25 -1.25q-1.1875 -1.25 -1.1875 -3.484375q0 -2.234375 1.109375 -3.546875q1.109375 -1.328125 2.96875 -1.328125q1.734375 0 2.75 1.140625q1.015625 1.140625 1.015625 3.03125l0 0.890625l-6.390625 0q0.046875 1.625 0.828125 2.46875q0.78125 0.84375 2.203125 0.84375q1.5 0 2.96875 -0.625l0 1.25q-0.75 0.328125 -1.421875 0.46875q-0.65625 0.140625 -1.59375 0.140625zm-0.375 -8.4375q-1.125 0 -1.796875 0.734375q-0.65625 0.71875 -0.765625 2.0l4.84375 0q0 -1.328125 -0.59375 -2.03125q-0.59375 -0.703125 -1.6875 -0.703125zm13.76857 -1.0l0 0.875l-1.71875 0.203125q0.234375 0.296875 0.421875 0.78125q0.1875 0.484375 0.1875 1.078125q0 1.359375 -0.9375 2.171875q-0.921875 0.8125 -2.546875 0.8125q-0.421875 0 -0.78125 -0.0625q-0.890625 0.46875 -0.890625 1.1875q0 0.375 0.3125 0.5625q0.3125 0.1875 1.078125 0.1875l1.640625 0q1.5 0 2.296875 0.640625q0.8125 0.625 0.8125 1.828125q0 1.546875 -1.234375 2.34375q-1.234375 0.8125 -3.59375 0.8125q-1.828125 0 -2.8125 -0.671875q-0.984375 -0.671875 -0.984375 -1.90625q0 -0.84375 0.53125 -1.46875q0.546875 -0.609375 1.53125 -0.84375q-0.34375 -0.15625 -0.59375 -0.484375q-0.234375 -0.34375 -0.234375 -0.796875q0 -0.5 0.265625 -0.875q0.265625 -0.390625 0.859375 -0.75q-0.71875 -0.296875 -1.171875 -1.0q-0.453125 -0.71875 -0.453125 -1.625q0 -1.53125 0.90625 -2.34375q0.921875 -0.828125 2.59375 -0.828125q0.71875 0 1.3125 0.171875l3.203125 0zm-7.390625 10.828125q0 0.75 0.625 1.140625q0.640625 0.390625 1.828125 0.390625q1.765625 0 2.609375 -0.53125q0.859375 -0.53125 0.859375 -1.4375q0 -0.75 -0.46875 -1.046875q-0.46875 -0.296875 -1.75 -0.296875l-1.6875 0q-0.953125 0 -1.484375 0.453125q-0.53125 0.46875 -0.53125 1.328125zm0.75 -7.859375q0 0.96875 0.546875 1.46875q0.5625 0.5 1.546875 0.5q2.046875 0 2.046875 -2.0q0 -2.09375 -2.078125 -2.09375q-0.984375 0 -1.53125 0.53125q-0.53125 0.53125 -0.53125 1.59375zm12.46199 6.46875q-2.0625 0 -3.25 -1.25q-1.1875 -1.25 -1.1875 -3.484375q0 -2.234375 1.109375 -3.546875q1.109375 -1.328125 2.96875 -1.328125q1.734375 0 2.75 1.140625q1.015625 1.140625 1.015625 3.03125l0 0.890625l-6.390625 0q0.046875 1.625 0.828125 2.46875q0.78125 0.84375 2.203125 0.84375q1.5 0 2.96875 -0.625l0 1.25q-0.75 0.328125 -1.421875 0.46875q-0.65625 0.140625 -1.59375 0.140625zm-0.375 -8.4375q-1.125 0 -1.796875 0.734375q-0.65625 0.71875 -0.765625 2.0l4.84375 0q0 -1.328125 -0.59375 -2.03125q-0.59375 -0.703125 -1.6875 -0.703125zm7.58107 8.265625l-1.40625 0l0 -13.171875l1.40625 0l0 13.171875zm14.804672 0l0 -6.03125q0 -1.109375 -0.484375 -1.65625q-0.46875 -0.5625 -1.46875 -0.5625q-1.3125 0 -1.9375 0.75q-0.625 0.75 -0.625 2.328125l0 5.171875l-1.40625 0l0 -6.03125q0 -1.109375 -0.46875 -1.65625q-0.46875 -0.5625 -1.484375 -0.5625q-1.3125 0 -1.9375 0.796875q-0.609375 0.78125 -0.609375 2.59375l0 4.859375l-1.40625 0l0 -9.265625l1.140625 0l0.234375 1.265625l0.0625 0q0.40625 -0.6875 1.125 -1.0625q0.71875 -0.375 1.625 -0.375q2.171875 0 2.84375 1.5625l0.0625 0q0.421875 -0.71875 1.203125 -1.140625q0.78125 -0.421875 1.796875 -0.421875q1.5625 0 2.34375 0.8125q0.796875 0.796875 0.796875 2.578125l0 6.046875l-1.40625 0zm9.99321 0l-0.28125 -1.3125l-0.0625 0q-0.6875 0.859375 -1.390625 1.171875q-0.6875 0.3125 -1.71875 0.3125q-1.375 0 -2.15625 -0.703125q-0.78125 -0.71875 -0.78125 -2.03125q0 -2.8125 4.484375 -2.953125l1.578125 -0.046875l0 -0.578125q0 -1.078125 -0.46875 -1.59375q-0.46875 -0.53125 -1.5 -0.53125q-1.15625 0 -2.625 0.703125l-0.421875 -1.0625q0.671875 -0.375 1.484375 -0.578125q0.828125 -0.21875 1.640625 -0.21875q1.671875 0 2.46875 0.734375q0.796875 0.734375 0.796875 2.359375l0 6.328125l-1.046875 0zm-3.171875 -0.984375q1.3125 0 2.0625 -0.71875q0.75 -0.71875 0.75 -2.015625l0 -0.84375l-1.40625 0.0625q-1.671875 0.0625 -2.421875 0.53125q-0.734375 0.453125 -0.734375 1.421875q0 0.765625 0.453125 1.171875q0.46875 0.390625 1.296875 0.390625zm-1.65625 -10.796875q0 -0.4375 0.21875 -0.625q0.234375 -0.203125 0.546875 -0.203125q0.328125 0 0.546875 0.203125q0.234375 0.1875 0.234375 0.625q0 0.421875 -0.234375 0.625q-0.21875 0.203125 -0.546875 0.203125q-0.3125 0 -0.546875 -0.203125q-0.21875 -0.203125 -0.21875 -0.625zm3.234375 0q0 -0.4375 0.21875 -0.625q0.21875 -0.203125 0.53125 -0.203125q0.3125 0 0.546875 0.203125q0.234375 0.1875 0.234375 0.625q0 0.421875 -0.234375 0.625q-0.234375 0.203125 -0.546875 0.203125q-0.3125 0 -0.53125 -0.203125q-0.21875 -0.203125 -0.21875 -0.625zm12.918335 1.0625q0 1.15625 -1.203125 2.125q-0.75 0.59375 -0.984375 0.875q-0.234375 0.28125 -0.234375 0.5625q0 0.265625 0.109375 0.453125q0.109375 0.171875 0.40625 0.421875q0.3125 0.234375 0.96875 0.65625q1.1875 0.8125 1.609375 1.484375q0.4375 0.65625 0.4375 1.515625q0 1.34375 -0.828125 2.078125q-0.8125 0.71875 -2.328125 0.71875q-1.59375 0 -2.5 -0.59375l0 -1.296875q0.53125 0.328125 1.1875 0.53125q0.671875 0.203125 1.28125 0.203125q1.8125 0 1.8125 -1.546875q0 -0.640625 -0.359375 -1.078125q-0.34375 -0.453125 -1.265625 -1.046875q-1.078125 -0.703125 -1.484375 -1.21875q-0.40625 -0.515625 -0.40625 -1.234375q0 -0.53125 0.28125 -0.96875q0.296875 -0.453125 0.90625 -0.90625q0.625 -0.484375 0.890625 -0.859375q0.28125 -0.390625 0.28125 -0.828125q0 -0.6875 -0.578125 -1.046875q-0.578125 -0.359375 -1.640625 -0.359375q-2.34375 0 -2.34375 1.890625l0 10.1875l-1.40625 0l0 -10.171875q0 -1.5 0.921875 -2.296875q0.9375 -0.796875 2.828125 -0.796875q1.734375 0 2.6875 0.671875q0.953125 0.65625 0.953125 1.875zm4.794937 10.71875l-1.40625 0l0 -9.265625l1.40625 0l0 9.265625zm-1.515625 -11.78125q0 -0.484375 0.234375 -0.703125q0.234375 -0.234375 0.59375 -0.234375q0.328125 0 0.578125 0.234375q0.25 0.21875 0.25 0.703125q0 0.46875 -0.25 0.703125q-0.25 0.234375 -0.578125 0.234375q-0.359375 0 -0.59375 -0.234375q-0.234375 -0.234375 -0.234375 -0.703125zm12.085922 2.515625l0 0.875l-1.71875 0.203125q0.234375 0.296875 0.421875 0.78125q0.1875 0.484375 0.1875 1.078125q0 1.359375 -0.9375 2.171875q-0.921875 0.8125 -2.546875 0.8125q-0.421875 0 -0.78125 -0.0625q-0.890625 0.46875 -0.890625 1.1875q0 0.375 0.3125 0.5625q0.3125 0.1875 1.078125 0.1875l1.640625 0q1.5 0 2.296875 0.640625q0.8125 0.625 0.8125 1.828125q0 1.546875 -1.234375 2.34375q-1.234375 0.8125 -3.59375 0.8125q-1.828125 0 -2.8125 -0.671875q-0.984375 -0.671875 -0.984375 -1.90625q0 -0.84375 0.53125 -1.46875q0.546875 -0.609375 1.53125 -0.84375q-0.34375 -0.15625 -0.59375 -0.484375q-0.234375 -0.34375 -0.234375 -0.796875q0 -0.5 0.265625 -0.875q0.265625 -0.390625 0.859375 -0.75q-0.71875 -0.296875 -1.171875 -1.0q-0.453125 -0.71875 -0.453125 -1.625q0 -1.53125 0.90625 -2.34375q0.921875 -0.828125 2.59375 -0.828125q0.71875 0 1.3125 0.171875l3.203125 0zm-7.390625 10.828125q0 0.75 0.625 1.140625q0.640625 0.390625 1.828125 0.390625q1.765625 0 2.609375 -0.53125q0.859375 -0.53125 0.859375 -1.4375q0 -0.75 -0.46875 -1.046875q-0.46875 -0.296875 -1.75 -0.296875l-1.6875 0q-0.953125 0 -1.484375 0.453125q-0.53125 0.46875 -0.53125 1.328125zm0.75 -7.859375q0 0.96875 0.546875 1.46875q0.5625 0.5 1.546875 0.5q2.046875 0 2.046875 -2.0q0 -2.09375 -2.078125 -2.09375q-0.984375 0 -1.53125 0.53125q-0.53125 0.53125 -0.53125 1.59375z" fill-rule="nonzero"></path><path fill="#000000" d="m102.30939 344.59747l0 6.015625q0 1.125 0.515625 1.6875q0.515625 0.5625 1.609375 0.5625q1.453125 0 2.125 -0.796875q0.671875 -0.796875 0.671875 -2.609375l0 -4.859375l1.40625 0l0 9.265625l-1.15625 0l-0.203125 -1.25l-0.078125 0q-0.421875 0.6875 -1.1875 1.0625q-0.765625 0.359375 -1.75 0.359375q-1.6875 0 -2.53125 -0.796875q-0.84375 -0.8125 -0.84375 -2.578125l0 -6.0625l1.421875 0zm0.078125 -2.515625q0 -0.4375 0.21875 -0.625q0.234375 -0.203125 0.546875 -0.203125q0.328125 0 0.546875 0.203125q0.234375 0.1875 0.234375 0.625q0 0.421875 -0.234375 0.625q-0.21875 0.203125 -0.546875 0.203125q-0.3125 0 -0.546875 -0.203125q-0.21875 -0.203125 -0.21875 -0.625zm3.234375 0q0 -0.4375 0.21875 -0.625q0.21875 -0.203125 0.53125 -0.203125q0.3125 0 0.546875 0.203125q0.234375 0.1875 0.234375 0.625q0 0.421875 -0.234375 0.625q-0.234375 0.203125 -0.546875 0.203125q-0.3125 0 -0.53125 -0.203125q-0.21875 -0.203125 -0.21875 -0.625zm10.307358 2.359375q1.828125 0 2.84375 1.25q1.015625 1.25 1.015625 3.53125q0 2.28125 -1.03125 3.546875q-1.015625 1.265625 -2.828125 1.265625q-0.890625 0 -1.640625 -0.328125q-0.75 -0.34375 -1.265625 -1.03125l-0.09375 0l-0.296875 1.1875l-1.015625 0l0 -13.171875l1.40625 0l0 3.203125q0 1.078125 -0.0625 1.9375l0.0625 0q0.984375 -1.390625 2.90625 -1.390625zm-0.203125 1.171875q-1.4375 0 -2.078125 0.828125q-0.625 0.828125 -0.625 2.78125q0 1.953125 0.65625 2.796875q0.65625 0.84375 2.09375 0.84375q1.28125 0 1.921875 -0.9375q0.640625 -0.953125 0.640625 -2.71875q0 -1.8125 -0.640625 -2.703125q-0.640625 -0.890625 -1.96875 -0.890625zm10.431061 8.421875q-2.0625 0 -3.25 -1.25q-1.1875 -1.25 -1.1875 -3.484375q0 -2.234375 1.109375 -3.546875q1.109375 -1.328125 2.96875 -1.328125q1.734375 0 2.75 1.140625q1.015625 1.140625 1.015625 3.03125l0 0.890625l-6.390625 0q0.046875 1.625 0.828125 2.46875q0.78125 0.84375 2.203125 0.84375q1.5 0 2.96875 -0.625l0 1.25q-0.75 0.328125 -1.421875 0.46875q-0.65625 0.140625 -1.59375 0.140625zm-0.375 -8.4375q-1.125 0 -1.796875 0.734375q-0.65625 0.71875 -0.765625 2.0l4.84375 0q0 -1.328125 -0.59375 -2.03125q-0.59375 -0.703125 -1.6875 -0.703125zm10.409195 -1.171875q0.625 0 1.109375 0.09375l-0.1875 1.3125q-0.578125 -0.140625 -1.015625 -0.140625q-1.125 0 -1.9375 0.921875q-0.796875 0.90625 -0.796875 2.28125l0 4.96875l-1.40625 0l0 -9.265625l1.15625 0l0.171875 1.703125l0.0625 0q0.515625 -0.90625 1.234375 -1.390625q0.734375 -0.484375 1.609375 -0.484375zm7.15152 9.609375q-0.890625 0 -1.640625 -0.328125q-0.75 -0.34375 -1.265625 -1.03125l-0.09375 0q0.09375 0.8125 0.09375 1.53125l0 3.8125l-1.40625 0l0 -13.421875l1.140625 0l0.203125 1.265625l0.0625 0q0.546875 -0.765625 1.265625 -1.09375q0.71875 -0.34375 1.640625 -0.34375q1.859375 0 2.859375 1.265625q1.0 1.25 1.0 3.53125q0 2.28125 -1.03125 3.546875q-1.015625 1.265625 -2.828125 1.265625zm-0.203125 -8.421875q-1.40625 0 -2.046875 0.796875q-0.640625 0.78125 -0.65625 2.5l0 0.3125q0 1.953125 0.65625 2.796875q0.65625 0.84375 2.09375 0.84375q1.203125 0 1.875 -0.96875q0.6875 -0.984375 0.6875 -2.6875q0 -1.734375 -0.6875 -2.65625q-0.671875 -0.9375 -1.921875 -0.9375zm10.743561 -1.1875q0.625 0 1.109375 0.09375l-0.1875 1.3125q-0.578125 -0.140625 -1.015625 -0.140625q-1.125 0 -1.9375 0.921875q-0.796875 0.90625 -0.796875 2.28125l0 4.96875l-1.40625 0l0 -9.265625l1.15625 0l0.171875 1.703125l0.0625 0q0.515625 -0.90625 1.234375 -1.390625q0.734375 -0.484375 1.609375 -0.484375zm4.167145 0.171875l0 6.015625q0 1.125 0.515625 1.6875q0.515625 0.5625 1.609375 0.5625q1.453125 0 2.125 -0.796875q0.671875 -0.796875 0.671875 -2.609375l0 -4.859375l1.40625 0l0 9.265625l-1.15625 0l-0.203125 -1.25l-0.078125 0q-0.421875 0.6875 -1.1875 1.0625q-0.765625 0.359375 -1.75 0.359375q-1.6875 0 -2.53125 -0.796875q-0.84375 -0.8125 -0.84375 -2.578125l0 -6.0625l1.421875 0zm0.078125 -2.515625q0 -0.4375 0.21875 -0.625q0.234375 -0.203125 0.546875 -0.203125q0.328125 0 0.546875 0.203125q0.234375 0.1875 0.234375 0.625q0 0.421875 -0.234375 0.625q-0.21875 0.203125 -0.546875 0.203125q-0.3125 0 -0.546875 -0.203125q-0.21875 -0.203125 -0.21875 -0.625zm3.234375 0q0 -0.4375 0.21875 -0.625q0.21875 -0.203125 0.53125 -0.203125q0.3125 0 0.546875 0.203125q0.234375 0.1875 0.234375 0.625q0 0.421875 -0.234375 0.625q-0.234375 0.203125 -0.546875 0.203125q-0.3125 0 -0.53125 -0.203125q-0.21875 -0.203125 -0.21875 -0.625zm10.182358 3.59375l-2.359375 0l0 8.1875l-1.40625 0l0 -8.1875l-1.65625 0l0 -0.625l1.65625 -0.515625l0 -0.515625q0 -3.421875 2.984375 -3.421875q0.734375 0 1.71875 0.296875l-0.359375 1.125q-0.8125 -0.25 -1.390625 -0.25q-0.796875 0 -1.171875 0.53125q-0.375 0.515625 -0.375 1.6875l0 0.609375l2.359375 0l0 1.078125zm4.684433 7.203125q0.375 0 0.71875 -0.046875q0.34375 -0.0625 0.546875 -0.125l0 1.078125q-0.21875 0.109375 -0.671875 0.171875q-0.4375 0.078125 -0.796875 0.078125q-2.6875 0 -2.6875 -2.84375l0 -5.515625l-1.328125 0l0 -0.671875l1.328125 -0.578125l0.59375 -1.984375l0.8125 0l0 2.15625l2.6875 0l0 1.078125l-2.6875 0l0 5.46875q0 0.828125 0.390625 1.28125q0.40625 0.453125 1.09375 0.453125z" fill-rule="nonzero"></path><path fill="#000000" fill-opacity="0.0" d="m660.3583 316.22256c0.03149414 0 0.06298828 0.03149414 0.06298828 0.06298828" fill-rule="evenodd"></path><path stroke="#000000" stroke-width="1.0" stroke-linejoin="round" stroke-linecap="butt" d="m660.3583 316.22256c0.03149414 0 0.06298828 0.03149414 0.06298828 0.06298828" fill-rule="evenodd"></path><path fill="#000000" fill-opacity="0.0" d="m660.3583 316.22256c12.744202 0 25.480469 0.01574707 25.488342 0.03149414c0.007873535 0.01574707 -12.7126465 0.03149414 -25.425354 0.03149414" fill-rule="evenodd"></path><path stroke="#000000" stroke-width="1.0" stroke-linejoin="round" stroke-linecap="butt" d="m660.3583 316.22256c12.744202 0 25.480469 0.01574707 25.488342 0.03149414c0.007873535 0.01574707 -12.7126465 0.03149414 -25.425354 0.03149414" fill-rule="evenodd"></path></g></svg> 